<svg xmlns="http://www.w3.org/2000/svg" width="1440" height="574" fill="none"><path fill="url(#a)" d="M1440 150.463V9.015a74.402 74.402 0 0 0-29.64-8.761 74.038 74.038 0 0 0-30.59 4.075c-8.66 3.143-20.75 10.37-25.14 18.627-6.92-7-15.69-11.78-25.23-13.754a48.932 48.932 0 0 0-28.47 2.64c-17.9 7.658-36.47 27.428-36.11 47.255a35.037 35.037 0 0 0-19.64.815c-6.35 2.14-11.98 6.054-16.27 11.299-4.1 5.13-6.67 11.363-7.4 17.95-.73 6.589.42 13.251 3.3 19.19a85.664 85.664 0 0 0-32.65-13.58 84.816 84.816 0 0 0-35.24.838c-9.44 2.257-51.44 10.085-49.37 26.427a57.758 57.758 0 0 0-9.67-25.442c-5.19-7.554-12.09-13.704-20.12-17.921a54.673 54.673 0 0 0-25.97-6.285 54.708 54.708 0 0 0-25.84 6.793c-15.83 8.714-30.494 23.599-32.449 41.855-6.614-9.109-15.335-16.396-25.38-21.208a65.718 65.718 0 0 0-32.174-6.362c-22.061 1.515-45.323 14.285-55.851 34.284-5.173-6.772-12.025-12.003-19.843-15.148a46.048 46.048 0 0 0-24.614-2.737c-16.504 2.857-32.477 15.828-37.588 32.141-18.486-11.428-48.003-6.571-60.793 11.428-13.963-27.427-64.982-42.312-89.361-20.542.502-40.683-51.299-51.996-71.07-19.084-6.06 10.142-6.758 25.313 1.452 33.683-10.835-1.571-20.749 2.315-25.133 12.543-7.4-11.914-29.126-17.714-40.129-9.2-3.083-7.719-8.254-14.379-14.907-19.197-6.653-4.817-14.511-7.593-22.653-8.001-16.252-.543-34.627 7.456-41.497 22.513a41.379 41.379 0 0 0-13.676-9.467 40.609 40.609 0 0 0-16.204-3.247c-11.17.172-24.853 7.285-32.337 15.656a43.335 43.335 0 0 0-14.613-9.836 42.529 42.529 0 0 0-17.222-3.134c-11.757.371-23.765 2-31.472 11.056-3.77-17.77-16.253-33.741-34.739-35.769a36.904 36.904 0 0 0-15.621 1.761 37.532 37.532 0 0 0-13.561 8.124c-10.165-12.913-16.756-25.713-34.069-28.027a35.35 35.35 0 0 0-18.615 2.085c-5.918 2.357-11.124 6.27-15.091 11.343a63.293 63.293 0 0 0 1.238-28.163 62.634 62.634 0 0 0-11.096-25.805c-11.561-14.885-31.584-22.856-49.595-18.285-18.012 4.572-33.79 23.285-33.315 42.284-10.249-3.286-19.408-2.257-27.563 4.885a47.263 47.263 0 0 0-7.362-17.242 46.1 46.1 0 0 0-13.414-12.87 44.894 44.894 0 0 0-17.29-6.369A44.552 44.552 0 0 0 0 46.27v526.762h1440V150.463Z"/><defs><linearGradient id="a" x1="720" x2="720" y1=".127" y2="573.031" gradientUnits="userSpaceOnUse"><stop stop-color="#CBEAF4" stop-opacity=".75"/><stop offset=".563" stop-color="#CBEAF4"/></linearGradient></defs></svg>