<svg xmlns="http://www.w3.org/2000/svg" width="20" height="16" fill="none"><path fill="#fff" d="M17.633 3.861c.013.167.013.333.013.498 0 5.074-4.053 10.92-11.46 10.92-2.282 0-4.402-.629-6.186-1.723.324.036.636.048.973.048a8.327 8.327 0 0 0 5.001-1.64c-1.771-.035-3.255-1.14-3.767-2.661.249.035.499.059.761.059.361 0 .724-.048 1.061-.13C2.182 8.874.799 7.33.799 5.464v-.048c.537.285 1.16.463 1.82.487C1.534 5.216.823 4.039.823 2.708c0-.712.199-1.366.548-1.936C3.354 3.1 6.335 4.622 9.677 4.788a4.164 4.164 0 0 1-.1-.88c0-2.114 1.796-3.837 4.028-3.837 1.16 0 2.207.463 2.943 1.212a8.2 8.2 0 0 0 2.556-.927 3.87 3.87 0 0 1-1.771 2.115 8.39 8.39 0 0 0 2.319-.595 8.434 8.434 0 0 1-2.019 1.985Z"/></svg>