<svg xmlns="http://www.w3.org/2000/svg" width="18" height="18" fill="none"><path fill="#fff" fill-rule="evenodd" d="M13.5.1h-9C2.025.1 0 2.029 0 4.388v8.575c0 2.358 2.025 4.288 4.5 4.288h9c2.475 0 4.5-1.93 4.5-4.288V4.388C18 2.028 15.975.1 13.5.1ZM9 12.249c-2.071 0-3.75-1.6-3.75-3.574 0-1.973 1.679-3.573 3.75-3.573 2.07 0 3.75 1.6 3.75 3.573 0 1.973-1.68 3.573-3.75 3.573Zm3.75-8.219c0 .592.503 1.072 1.125 1.072S15 4.622 15 4.03c0-.592-.503-1.072-1.125-1.072s-1.125.48-1.125 1.072Z" clip-rule="evenodd"/></svg>