<svg xmlns="http://www.w3.org/2000/svg" width="942" height="973" fill="none"><g clip-path="url(#a)"><path fill="url(#b)" d="m199.542 324.893-52.956 61.947-9.978-14.641-5.483-8.045 46.088-52.977 8.822 5.419 3.046 1.87 10.461 6.427Z"/><path fill="#426369" d="m186.035 316.596-49.427 55.603-5.483-8.045 46.088-52.977 8.822 5.419Z"/><path fill="url(#c)" d="M190.614 253.095s-7.352 21.678-16.195 28.841c-4.643 3.403-17.183 2.5-17.183 2.5l-2.101-18.149 8.949-1.093 16.258-17.855 10.272 5.756Z"/><path fill="url(#d)" d="M131.86 284.751s5.189.609 12.751 1.302l3.256.294 4.201.337 3.361.273 9.222.609c.441-4.201-4.684-25.523-4.684-25.523l-8.403.673-1.827.147-2.878.231-1.849.147-27.896 2.268 14.746 19.242Z"/><path fill="#F05A28" d="m151.985 286.684 3.361.273c-.778-5.084-2.92-18.654-3.95-24.241l-1.827.147 2.416 23.821ZM144.611 286.053l3.256.294c-.252-5.545-.777-17.792-1.176-23.253l-1.849.147-.231 22.812Z"/><path fill="#F8A86D" d="M177.675 250.7a10.887 10.887 0 0 0 11.784 4.727 11.708 11.708 0 0 0 4.769-2.941 14.226 14.226 0 0 0 1.932-2.416s9.642-5.23 9.18-6.932c-.693-2.584-2.857-1.575-11.554 2.941 2.416-2.437 9.6-7.184 8.067-9.6-1.24-1.974-10.314 5.084-10.923 5.567.588-.525 9.053-8.214 7.667-9.831-1.744-2.101-3.592-.882-10.503 5.903 2.752-4.748 7.373-10.503 4.915-11.113-2.457-.609-6.428 4.601-8.738 8.235-1.177 1.848-1.954 3.298-2.101 3.403.168-.609 1.492-5.399.693-7.73-.798-2.332-2.772-3.277-4.012-2.836-1.239.441 0 2.836-1.596 8.213a14.535 14.535 0 0 0 .42 14.41Z"/><path fill="#E58F54" d="M184.838 249.23a14.233 14.233 0 0 0 4.684-4.726s3.571 3.781 5.903 6.616c.262-.337.508-.688.735-1.05a65.915 65.915 0 0 0-5.231-8.024 31.628 31.628 0 0 0-6.679-6.806c-1.177 1.848-1.954 3.298-2.101 3.403 0 0 4.894 4.768 2.689 10.587Z"/><path fill="url(#e)" d="M74.199 382.408s20.775-9.579 26.993-19.136c2.878-4.979.651-17.351.651-17.351l-18.254-.295-.168 9.033-16.028 18.044 6.806 9.705Z"/><path fill="#F8A86D" d="M69.263 371.17a10.88 10.88 0 0 1 5.944 11.238 11.531 11.531 0 0 1-2.415 5.041c-.383.476-.797.925-1.24 1.345-.305.299-.628.579-.966.84 0 0-4.201 10.125-5.924 9.852-2.647-.42-1.87-2.668 1.723-11.806-2.1 2.668-6.134 10.314-8.718 9.054-2.1-1.029 3.97-10.797 4.39-11.448-.462.63-7.226 9.852-8.97 8.654-2.205-1.533-1.26-3.487 4.77-11.091-4.433 3.235-9.769 8.402-10.504 6.05-.735-2.353 3.907-6.869 7.268-9.558 1.723-1.344 3.067-2.29 3.172-2.353-.588.231-5.21 2.101-7.625 1.492-2.416-.609-3.655-2.374-3.34-3.655.315-1.282 2.836-.378 8.024-2.458a14.707 14.707 0 0 1 14.41-1.197Z"/><path fill="#E58F54" d="M68.548 378.459a14.006 14.006 0 0 1-4.201 5.146s4.201 3.172 7.205 5.189c-.305.299-.628.579-.966.84a65.518 65.518 0 0 1-8.529-4.348 31.966 31.966 0 0 1-7.478-5.945c1.723-1.344 3.067-2.289 3.172-2.352 0 0 5.273 4.285 10.797 1.47Z"/><path fill="url(#f)" d="M99.511 320.713s1.135 5.084 2.626 12.604c.21 1.036.42 2.108.63 3.214.252 1.302.525 2.647.777 4.054.21 1.092.42 2.206.61 3.319a407.648 407.648 0 0 1 1.575 9.117c-4.033.861-25.88-1.996-25.88-1.996l-.21-8.402v-6.596l-.693-27.98 20.565 12.666Z"/><path fill="#F05A28" d="M103.545 340.522c.21 1.092.42 2.206.609 3.319-5.126-.252-18.906-.945-24.514-1.365v-1.849l23.905-.105ZM102.137 333.254c.21 1.036.42 2.108.63 3.214-5.545.336-17.77 1.092-23.232 1.281v-1.869l22.602-2.626Z"/><path fill="url(#g)" d="m185.636 310.525-54.826 60.918-31.488-42.936L78.8 307.9l6.512-16.973 15.461-17.183 16.195-8.276 22.645 18.254 46.024 26.803Z"/><path fill="url(#h)" d="M121.631 281.684c2.268 10.881-16.007 12.499-16.007 12.499s-3.025 20.187-11.784 17.309c-5.924-1.975-8.949-12.604-10.272-19.179-.63-3.151-.882-5.419-.882-5.419l13.716-14.347s2.101 0 5.189.441c7.037.84 18.863 3.067 20.04 8.696Z"/><path fill="#F05A28" d="M101.591 272.988c5.167 4.768 10.839 12.939 3.697 21.006-7.898 8.759-18.044 1.575-21.72-1.576-.63-3.151-.882-5.419-.882-5.419l13.716-14.347s2.143-.021 5.189.336Z"/><path fill="#F05A28" d="m160.177 338.821-3.319 3.676-64.699-59.195 1.218-1.345 66.8 56.864Z"/><path fill="url(#i)" d="M83.777 291.284c-.23.483 10.966 8.927 19.032 0 8.066-8.928-3.781-18.927-3.781-18.927s-12.793 13.822-15.25 18.927Z"/><path fill="#F05A28" d="M116.127 297.145a3.426 3.426 0 0 0 0 2.583 2.354 2.354 0 0 0 4.076-.069 2.352 2.352 0 0 0 .251-1.59 2.413 2.413 0 0 0-3.236-1.767 2.414 2.414 0 0 0-1.091.843ZM132.281 310.273a2.326 2.326 0 0 0 0 2.101c.025.18.09.352.189.504a2.352 2.352 0 0 0 4.327-1.638 2.438 2.438 0 0 0-4.516-.967ZM147.342 323.003a2.322 2.322 0 0 0 0 2.101c.031.184.095.362.189.525a2.35 2.35 0 0 0 2.86.987 2.355 2.355 0 0 0 1.467-2.647 2.435 2.435 0 0 0-3.397-1.955c-.467.204-.859.55-1.119.989Z"/><path fill="#fff" d="M160.975 313.949c-1.701 1.891-14.998 6.155-15.061 5.147-.063-1.008 14.704-20.46 15.88-21.006 1.177-.546.862 13.99-.819 15.859Z"/><path fill="#F05A28" d="M159.273 310.042a1.513 1.513 0 0 0-1.806 1.093v.567a1.513 1.513 0 0 0 1.848 1.386 1.637 1.637 0 0 0 1.261-1.533 1.679 1.679 0 0 0-1.303-1.513Z"/><path fill="#fff" d="M133.583 345.038c1.702-1.869 4.538-15.565 3.529-15.502-1.008.063-18.779 16.805-19.094 17.981-.315 1.176 13.885-.588 15.565-2.479Z"/><path fill="#F05A28" d="M131.251 341.194a1.513 1.513 0 0 0-1.806 1.092v.211a1.935 1.935 0 0 0 0 .357 1.502 1.502 0 0 0 .602 1.122 1.52 1.52 0 0 0 1.246.264 1.6 1.6 0 0 0 1.24-1.533 1.621 1.621 0 0 0-1.282-1.513Z"/><path fill="url(#j)" d="M17.105 210.747S4.5 223.035 1.518 236.584c-2.983 13.549-5.63 35.311 50.688 81.924 55.225-39.029 72.218-83.52 72.218-83.52s-26.572-27.14-54.615-39.26c-31.278-13.591-52.704 15.019-52.704 15.019Z"/><path fill="#F8A86D" d="M83.61 219.611c-.336-.294-4.622-12.015 5.335-16.258 8.949-3.844 23.38 15.943 19.095 26.089-2.983 7.079-7.31 8.403-9.054 7.394-1.743-1.008-15.376-17.225-15.376-17.225Z"/><path fill="#E2734C" d="M97.684 210.159a.421.421 0 0 0 .44-.693c-1.91-1.723-5.25-3.887-8.654-1.933-6.301 3.613-2.835 12.457-2.646 16.091l2.205 2.1a19.64 19.64 0 0 1 3.697-4.39 4.504 4.504 0 0 1 5.41-.559 4.5 4.5 0 0 1 1.396 1.336c2.101 2.416.252 7.541-3.424 9.558a18.504 18.504 0 0 0 3.088 2.92l-.756-2.416s5.735-4.201 5.125-8.928a7.547 7.547 0 0 0-3.37-4.976 7.549 7.549 0 0 0-5.935-.947 8.566 8.566 0 0 0-5.945 5.734s-2.542-8.696 2.31-12.351a7.32 7.32 0 0 1 3.46-1.185 7.319 7.319 0 0 1 3.599.639Z"/><path fill="#F8A86D" d="M29.078 278.722c-.336-.315-12.436-3.34-15.607 6.995-2.878 9.327 18.296 21.573 27.937 16.259 6.743-3.718 7.542-8.15 6.407-9.789-1.134-1.638-18.737-13.465-18.737-13.465Z"/><path fill="#E2734C" d="M21.306 293.7a.418.418 0 0 1-.12.518.426.426 0 0 1-.268.088.425.425 0 0 1-.263-.102c-1.912-1.723-4.412-4.811-2.815-8.403 2.92-6.638 12.078-4.201 15.712-4.201l2.332 1.975a19.279 19.279 0 0 0-4.075 4.201 4.475 4.475 0 0 0 1.512 6.659c2.605 1.974 7.52-.525 9.138-4.391a17.127 17.127 0 0 1 3.214 2.773l-2.542-.735s-3.508 6.134-8.402 6.029a7.565 7.565 0 0 1-6.681-5.555 7.559 7.559 0 0 1-.188-3.058 8.633 8.633 0 0 1 5.083-6.533s-8.97-1.617-12.057 3.571a7.335 7.335 0 0 0 .42 7.164Z"/><path fill="url(#k)" d="m14.059 266.392 29.723 26.761c4.201 3.866 26.804 19.137 52.074-8.948 21.657-24.073 9.726-45.352.525-53.734-4.705-4.201-27.308-24.556-27.308-24.556H51.701l-38.588 42.559.946 17.918Z"/><path fill="url(#l)" d="M91.277 227.741c4.348 3.907 3.97 11.406-.84 16.804-4.81 5.399-12.226 6.512-16.574 2.626-4.348-3.886-3.95-11.406.861-16.805 4.81-5.398 12.226-6.532 16.553-2.625Z" opacity=".64"/><path fill="url(#m)" d="M55.735 267.253c4.348 3.886 3.97 11.385-.84 16.805-4.811 5.419-12.226 6.512-16.574 2.605-4.349-3.908-3.97-11.407.84-16.805 4.81-5.399 12.246-6.512 16.574-2.605Z" opacity=".64"/><path fill="#E58F54" d="M80.123 287.041a32.644 32.644 0 0 1 5.923-9.831 42.001 42.001 0 0 1 9.852-6.533 13.97 13.97 0 0 0-11.973 4.894 15.636 15.636 0 0 0-3.802 11.47Z"/><path fill="url(#n)" d="M63.696 303.11c-5.903 3.004-11.616 1.24-18.464-1.68-6.848-2.92-28.842-24.787-33.484-40.311 4.621 4.832 48.44 39.87 51.948 41.991Z"/><path fill="url(#o)" d="M110.098 251.54c2.332-6.175 0-11.658-3.634-18.17-3.634-6.512-27.665-26.068-43.608-29.051 5.294 4.075 44.743 43.966 47.242 47.221Z"/><path fill="url(#p)" d="M77.518 210.6c-3.95 1.008-10.902 7.793-10.902 7.793l-9.474-7.163 7.625 9.222-14.704 15.565-8.865-5.777 7.121 8.403c-1.344 1.323-14.22 15.817-14.22 15.817l-14.012-10.503c.252.315 7.898 10.167 11.091 14.2-7.247 9.579-11.196 16.007-11.196 16.007-18.149-17.162-18.611-36.698 2.563-59.657 20.376-22.098 41.382-16.658 54.973-3.907Z"/><path fill="#5B2B13" d="M27.797 258.473c-4.622-8.634-7.563-14.18-7.689-14.432.252.315 7.899 10.167 11.092 14.2-7.247 9.579-11.197 16.007-11.197 16.007a94.037 94.037 0 0 1 7.794-15.775ZM77.518 210.6c-3.95 1.008-10.902 7.793-10.902 7.793l-9.474-7.163 7.625 9.222-14.704 15.565-8.864-5.777 7.12 8.403c-1.344 1.323-14.22 15.817-14.22 15.817l11.112-16.447-9.2-13.045 14.052 7.058 11.154-11.742-9.851-14.957 16.153 9.369s7.667-4.936 10-4.096Z"/><path fill="#3F2818" d="M70.25 243.978c.82 0-.61-6.091 2.479-10.061a16.403 16.403 0 0 1 7.94-4.727c-1.113 0-6.974-2.731-11.133 2.857-4.16 5.588-.105 11.868.714 11.931Z"/><path fill="#3F2818" d="M63.318 238.349a2.377 2.377 0 0 0 2.1-2.563 13.043 13.043 0 0 1 2.5-8.087c3.55-4.895 8.591-4.202 8.402-4.706-.189-.504-6.742-2.1-11.427 2.5-3.529 3.445-3.298 9.138-2.962 11.7a1.366 1.366 0 0 0 1.45 1.156h-.063ZM53.487 263.43c.168.777-5.923-.126-9.347 3.193-3.424 3.319-2.836 8.549-3.55 8.108a9.01 9.01 0 0 1 2.1-11.112c4.937-3.928 10.63-.945 10.797-.189ZM46.513 256.792a2.623 2.623 0 0 1-2.458 2.605 13.153 13.153 0 0 0-7.73 3.361c-4.537 4.096-3.256 9.053-3.844 8.822-.588-.231-2.731-6.491 1.323-11.679 3.151-4.012 9.096-4.306 11.596-4.201a1.197 1.197 0 0 1 1.113 1.134v-.042Z"/><path fill="#E2734C" d="M54.79 247.969c-1.345 1.681 7.058 13.192 7.562 12.898a22.692 22.692 0 0 0 5.335-5.629c-.168-1.282-11.89-8.445-12.898-7.269Z"/><path fill="#6D2B3B" d="M86.635 262.674a16.973 16.973 0 0 1-4.076 10.209 15.07 15.07 0 0 1-9.872 6.154c-7.878 1.072-14.83-5.272-14.83-5.272l22.497-24.997s6.533 5.755 6.28 13.906Z"/><path fill="#431625" d="M74.808 275.886s-5.63 1.198-7.457-2.562a3.613 3.613 0 0 1 .966-4.369c2.101-1.702 4.37-2.101 5.82-4.349 1.848-2.71 2.898-8.234 6.007-7.688a6.602 6.602 0 0 1 4.096 3.4 6.596 6.596 0 0 1 .252 5.318c-1.45 4.117-5.798 10.124-9.684 10.25Z"/><path fill="#fff" d="M77.182 252.171a7.078 7.078 0 0 1 1.933 4.726c-.567 5.062-5.756 10.377-10.21 13.549a6.028 6.028 0 0 1-8.17 0l16.447-18.275Z"/><path fill="#CBEAF4" d="M76.762 252.738c.336 2.457-.168 6.05-4.201 10.923a14.951 14.951 0 0 1-11.218 6.176l15.419-17.099Z"/><path fill="url(#q)" d="M86.635 262.674a14.705 14.705 0 0 1-.715 4.201 19.29 19.29 0 0 1-3.36 6.092 16.495 16.495 0 0 1-6.513 5.23 12.616 12.616 0 0 1-3.36.924 17.835 17.835 0 0 1 13.948-16.447Z"/><path fill="#E2734C" d="M57.856 273.723c4.322-3.3 8.324-7 11.953-11.049 3.86-4.33 7.373-8.959 10.503-13.843a253.582 253.582 0 0 0-22.456 24.892Z"/><path fill="url(#r)" d="m773.426 373.102-55.876-55.75 14.894-8.549 8.15-4.705 47.726 48.46-5.882 8.13-2.038 2.794-6.974 9.62Z"/><path fill="#A41E22" d="m782.438 360.688-49.994-51.885 8.15-4.705 47.726 48.46-5.882 8.13Z"/><path fill="url(#s)" d="m798.823 257.758-44.869.609-16.238-16.804-9.873 5.86s7.709 20.775 16.469 27.497c7.562 5.441 36.634 6.302 36.634 6.302l17.877-23.464Z"/><path fill="#F8A86D" d="M739.123 243.453a10.498 10.498 0 0 1-11.28 4.916 11.098 11.098 0 0 1-4.705-2.71 12.618 12.618 0 0 1-1.197-1.303 10.899 10.899 0 0 1-.736-.987s-9.473-4.789-9.095-6.449c.609-2.541 2.73-1.617 11.28 2.521-2.416-2.311-9.495-6.701-8.087-9.075 1.155-1.953 10.124 4.622 10.734 5.084-.568-.504-8.97-7.709-7.689-9.306 1.639-2.1 3.445-.966 10.335 5.42-2.772-4.517-7.415-10.062-5.062-10.629 2.353-.567 6.302 4.201 8.697 7.73 1.197 1.764 1.995 3.151 2.1 3.256-.189-.588-1.596-5.189-.882-7.457.714-2.269 2.584-3.256 3.802-2.878 1.218.378.147 2.752 1.764 7.94a14.09 14.09 0 0 1 .021 13.927Z"/><path fill="#E58F54" d="M732.149 242.235a13.426 13.426 0 0 1-4.663-4.453s-3.382 3.76-5.546 6.574a10.888 10.888 0 0 1-.735-.987 62.865 62.865 0 0 1 4.831-7.919 30.942 30.942 0 0 1 6.302-6.785c1.198 1.764 1.996 3.151 2.101 3.256 0 0-4.6 4.747-2.29 10.314Z"/><path fill="url(#t)" d="M843.859 369.195s-20.375-8.717-26.656-17.792c-5.063-7.814-4.496-36.907-4.496-36.907l24.241-16.7-2.709 44.701 16.006 17.035-6.386 9.663Z"/><path fill="#F8A86D" d="M848.334 358.104a10.501 10.501 0 0 0-5.441 11.049 10.756 10.756 0 0 0 2.479 4.853c.38.45.787.878 1.218 1.281.307.277.63.537.967.777 0 0 4.327 9.684 6.007 9.39 2.542-.483 1.744-2.647-1.995-11.385 2.205 2.52 6.302 9.788 8.696 8.507 1.996-1.05-4.201-10.335-4.558-10.965.462.609 7.247 9.348 8.906 8.129 2.101-1.533 1.135-3.403-4.915-10.503 4.369 3.004 9.684 7.899 10.377 5.567.693-2.332-3.97-6.554-7.31-9.054-1.681-1.26-3.025-2.1-3.13-2.1.588.21 5.104 1.848 7.415 1.239s3.382-2.416 3.046-3.655c-.336-1.239-2.731-.273-7.814-2.101a14.16 14.16 0 0 0-13.948-1.029Z"/><path fill="#E58F54" d="M849.216 365.141a13.587 13.587 0 0 0 4.201 4.873s-3.928 3.193-6.848 5.231c.307.277.63.537.967.777a63.076 63.076 0 0 0 8.15-4.453 31.08 31.08 0 0 0 7.058-5.945c-1.68-1.26-3.025-2.1-3.13-2.1 0 0-4.957 4.18-10.398 1.617Z"/><path fill="url(#u)" d="m788.32 360.751-54.742-57.494 43.819-27.202 21.426-18.297 2.079.988 5.777 2.751 1.87.883 6.175 2.94 15.44 16.196 1.764 4.201.778 1.891 3.298 7.898.945 2.29-19.305 20.502-29.324 42.453Z"/><path fill="#A41E22" d="m762.902 334.031-3.319-3.466 61.989-58.06 1.219 1.26-59.889 60.266Z"/><path fill="url(#v)" d="M814.493 263.829c-.441-.252-9.431 9.915-1.512 18.359 7.919 8.445 18.653-2.1 18.653-2.1s-12.393-13.507-17.141-16.259Z"/><path fill="#A41E22" d="M806.427 294.603a2.247 2.247 0 0 0-1.996-.21c-.175.02-.346.069-.504.147a2.267 2.267 0 0 0 1.281 4.201 2.35 2.35 0 0 0 1.96-3.015 2.347 2.347 0 0 0-.741-1.123ZM792.542 309.244a2.242 2.242 0 0 0-1.995-.231c-.176.02-.346.069-.505.147a2.268 2.268 0 0 0 1.261 4.306 2.347 2.347 0 0 0 2.077-1.683 2.346 2.346 0 0 0-.838-2.539ZM779.119 322.814a2.241 2.241 0 0 0-1.996-.231 2.263 2.263 0 0 0-1.619.863 2.277 2.277 0 0 0-.45 1.779 2.253 2.253 0 0 0 1.012 1.53 2.257 2.257 0 0 0 1.813.281 2.347 2.347 0 0 0 2.078-1.683 2.354 2.354 0 0 0-.838-2.539ZM832.705 287.608c-6.049 4.201-16.972 9.663-25.711.924-10.503-10.503-6.092-20.754-.315-27.035l1.87.883c-3.656 4.369-10.209 15.082-.295 24.346 8.676 8.129 18.381 3.024 23.674-.988l.777 1.87ZM800.902 258.746c-5.377 4.348-19.115 15.313-23.506 17.309l21.427-18.297 2.079.988ZM817.644 318.298a238.48 238.48 0 0 1 18.359-22.792l.946 2.29-19.305 20.502Z"/><path fill="url(#w)" d="M895.388 271.811a46.181 46.181 0 0 0 7.877 4.202c19.851 7.961 36.298-4.349 38.567-23.443 1.932-16.385-13.381-26.006-22.308-27.308a7.079 7.079 0 0 0-5.252.735c-5.062 4.012-19.115 17.267-18.884 45.814Z"/><path fill="url(#x)" d="M895.388 271.811a46.181 46.181 0 0 0 7.877 4.202c6.596-4.328 12.919-10.104 15.985-17.414a45.582 45.582 0 0 0 .274-33.295 7.079 7.079 0 0 0-5.252.735c-5.062 3.97-19.115 17.225-18.884 45.772Z"/><path fill="url(#y)" d="M827.601 200.538a43.782 43.782 0 0 1-3.214-8.403c-5.588-20.648 8.592-35.521 27.812-35.521 16.511 0 24.241 16.343 24.451 25.355a7.162 7.162 0 0 1-1.344 5.146c-4.58 4.621-19.389 16.952-47.705 13.423Z"/><path fill="url(#z)" d="M827.601 200.538a43.93 43.93 0 0 1-3.214-8.402c5.063-6.029 11.554-11.638 19.158-13.822a45.786 45.786 0 0 1 33.105 3.655 7.162 7.162 0 0 1-1.344 5.146c-4.58 4.621-19.389 16.952-47.705 13.423Z"/><path fill="url(#A)" d="M900.386 203.122s-.777-5.609-8.654-11.575c-7.877-5.965-26.615-12.183-43.041-7.751-16.427 4.432-21.784 11.448-32.875 24.976-11.091 13.528-19.283 42.159 4.622 67.219 23.904 25.061 54.216 19.893 67.765 11.239a77.167 77.167 0 0 0 23.38-27.035c10.125-20.292 9.494-47.558-11.197-57.073Z"/><path fill="#F8A86D" d="M883.729 268.975c.315-.294 11.931-3.571 15.292 6.302 3.025 8.928-17.14 21.384-26.614 16.49-6.617-3.403-7.52-7.688-6.47-9.285 1.05-1.596 17.792-13.507 17.792-13.507Z"/><path fill="#E2734C" d="M891.711 283.281a.4.4 0 0 0 .372.607.4.4 0 0 0 .259-.124c1.827-1.723 4.201-4.769 2.52-8.214-3.025-6.301-11.826-3.655-15.334-3.739l-2.206 1.975a18.9 18.9 0 0 1 4.054 3.907 4.373 4.373 0 0 1 .867 3.546 4.38 4.38 0 0 1-2.127 2.966c-2.5 1.953-7.31-.315-8.97-4.012a16.773 16.773 0 0 0-3.045 2.773l2.373-.568s3.571 5.84 8.256 5.63a7.34 7.34 0 0 0 4.983-2.924 7.32 7.32 0 0 0 1.318-5.625 8.403 8.403 0 0 0-5.083-6.176s8.633-1.828 11.763 3.13a7.038 7.038 0 0 1 0 6.848Z"/><path fill="#F8A86D" d="M830.71 211.923c.315-.294 4.201-11.742-5.609-15.586-8.78-3.466-22.182 16.069-17.771 25.774 3.088 6.785 7.31 7.898 8.97 6.911 1.659-.987 14.41-17.099 14.41-17.099Z"/><path fill="#E2734C" d="M816.825 203.269a.422.422 0 0 1-.538-.427.422.422 0 0 1 .097-.246c1.806-1.722 4.978-3.907 8.402-2.1 6.302 3.34 3.088 11.994 3.004 15.502l-2.101 2.101a19.137 19.137 0 0 0-3.718-4.201 4.334 4.334 0 0 0-3.495-1.041 4.343 4.343 0 0 0-3.058 1.986c-2.101 2.395-.001 7.31 3.57 9.159a17.902 17.902 0 0 1-2.919 2.898l.672-2.352s-5.651-3.865-5.21-8.403a7.342 7.342 0 0 1 3.128-4.904 7.33 7.33 0 0 1 5.716-1.082 8.399 8.399 0 0 1 5.924 5.398s2.226-8.549-2.563-11.91a7.057 7.057 0 0 0-6.911-.378Z"/><path fill="url(#B)" d="m843.733 198.353-28.043 26.699c-4.054 3.865-20.501 24.472 4.748 50.961 21.615 22.707 43.062 12.771 51.843 4.516 4.495-4.201 25.753-24.556 25.753-24.556l1.218-16.805-38.168-40.395-17.351-.42Z"/><path fill="url(#C)" d="m831.214 209.97-20.396 21.006a17.549 17.549 0 0 1 .209-8.665 17.547 17.547 0 0 1 4.328-7.51c7.1-7.583 23.107-12.772 23.107-12.772l-7.248 7.941Z"/><path fill="url(#D)" d="m885.725 267.19-21.973 19.347a17.514 17.514 0 0 0 16.364-3.74c7.94-6.721 13.906-22.497 13.906-22.497l-8.297 6.89Z"/><path fill="url(#E)" d="M875.284 275.802c-4.075 3.887-11.301 2.962-16.09-2.1-4.79-5.063-5.378-12.289-1.303-16.196 4.076-3.907 11.323-2.962 16.112 2.101 4.789 5.062 5.378 12.288 1.281 16.195Z" opacity=".64"/><path fill="url(#F)" d="M839.806 238.538c-4.096 3.886-11.322 2.962-16.112-2.101-4.789-5.062-5.377-12.288-1.281-16.195 4.096-3.908 11.301-2.962 16.111 2.1 4.811 5.063 5.378 12.289 1.282 16.196Z" opacity=".64"/><path fill="#E58F54" d="M818.862 260.573a31.875 31.875 0 0 1 9.075 6.512 40.95 40.95 0 0 1 5.567 10.02 13.516 13.516 0 0 0-3.824-11.932 15.206 15.206 0 0 0-10.818-4.6Z"/><path fill="url(#G)" d="M831.214 209.97s11.238 7.142 20.271 12.603a28.232 28.232 0 0 0 21.258 3.298 21.825 21.825 0 0 0-.462 17.624c3.193 7.793 7.877 18.906 11.448 25.48 14.473-5.146 22.371-13.065 26.026-20.901 3.655-7.835 4.643-28.61-12.603-46.675-17.246-18.065-50.121-24.136-65.938 8.571Z"/><path fill="#3F2818" d="M855.854 229.064a2.5 2.5 0 0 1-2.92-1.869 12.892 12.892 0 0 0-4.642-6.722c-4.706-3.55-9.201-1.429-9.096-2.101.105-.672 5.672-3.781 11.343-.882 4.412 2.268 5.798 7.835 6.197 10.23a1.199 1.199 0 0 1-.882 1.281v.063Z"/><path fill="url(#H)" d="M847.473 231.333a5.504 5.504 0 1 1 .189-7.794 5.487 5.487 0 0 1-.189 7.794Z"/><path fill="#3F2818" d="M867.848 242.403a2.48 2.48 0 0 0 1.723 3.004 12.88 12.88 0 0 1 6.47 4.957c3.34 4.895.987 9.264 1.596 9.18.609-.084 4.054-5.483 1.428-11.28-2.1-4.517-7.541-6.155-9.914-6.68a1.153 1.153 0 0 0-1.303.819Z"/><path fill="url(#I)" d="M872.596 258.115a5.503 5.503 0 1 1 .189-7.772 5.475 5.475 0 0 1 1.521 3.926 5.481 5.481 0 0 1-1.71 3.846Z"/><path fill="#431625" d="M831.907 239.042s-3.823 10.062 5.672 19.389c10.503 10.271 19.451 6.091 19.451 6.091a33.98 33.98 0 0 1-16.321-9.032 31.786 31.786 0 0 1-8.802-16.448Z"/><path fill="#E2734C" d="M858.396 239.063c-1.512-1.429-12.94 5.756-13.003 6.302-.168 1.302 4.39 5.524 5.021 5.545 1.344.084 9.137-10.797 7.982-11.847Z"/><path fill="url(#J)" d="M465.877.098c-15.397 0-43.146 8.508-51.906 35.5-12.225 37.622.546 100.83.546 100.83l93.372 2.982s13.864-63.186 10.314-94.317C513.771 6.233 475.183.098 465.877.098Z"/><path fill="url(#K)" d="m498.562 218.708-81.503-.525 4.768-17.078 2.605-9.369 70.223 1.051 1.534 10.251.546 3.55 1.827 12.12Z"/><path fill="#359998" d="m496.189 203.038-74.361-1.933 2.604-9.369 70.224 1.051 1.533 10.251Z"/><path fill="url(#L)" d="M547.57 164.786s-21.321 8.402-32.517 6.301c-5.588-1.365-12.961-11.532-12.961-11.532l12.414-13.402 6.743 6.092 24.115.903 2.206 11.638Z"/><path fill="#F8A86D" d="M542.822 153.442a10.87 10.87 0 0 0 .04 6.67 10.873 10.873 0 0 0 3.93 5.388 11.586 11.586 0 0 0 5.336 1.764c.601.04 1.205.04 1.806 0 .429-.019.857-.061 1.282-.126 0 0 10.209 3.991 11.217 2.563 1.533-2.101-.63-3.214-9.705-6.953 3.445.273 11.68 2.71 12.604 0 .693-2.227-10.503-4.6-11.301-4.747.777 0 12.099 1.617 12.456-.462.42-2.668-1.638-3.319-11.301-4.202 5.398-.966 12.856-1.197 11.658-3.424-1.197-2.226-7.667-1.932-11.931-1.365-2.101.294-3.781.63-3.886.651.588-.252 5.083-2.331 6.301-4.453 1.219-2.122.736-4.201-.399-4.894-1.134-.694-2.226 1.785-7.31 4.201a14.516 14.516 0 0 0-10.797 9.389Z"/><path fill="#E58F54" d="M548.557 157.938c2.137.712 4.416.892 6.638.525 0 0-.588 5.188-1.26 8.801.429-.019.857-.061 1.281-.126a68.168 68.168 0 0 0 2.773-9.158 31.523 31.523 0 0 0 .882-9.495c-2.101.294-3.781.63-3.886.651 0 0-.567 6.743-6.428 8.802Z"/><path fill="url(#M)" d="M484.825 145.355s16.91 21.006 26.404 26.72c4.412 1.89 12.604.945 18.906-.273 5.209-.988 9.263-2.101 9.263-2.101l-1.596-17.834-6.596-.777-9.747-1.135s-29.618-32.223-30.732-32.664l-5.902 28.064Z"/><path fill="#A41E22" d="M530.114 171.802a131.526 131.526 0 0 0 9.263-2.101l-1.596-17.834-6.596-.777-1.071 20.712Z"/><path fill="#CBEAF4" d="M532.697 165.248a1.973 1.973 0 0 0 1.149 1.853 1.976 1.976 0 0 0 2.688-2.447 1.97 1.97 0 0 0-1.736-1.318 2.102 2.102 0 0 0-2.101 1.912Z"/><path fill="url(#N)" d="M373.934 159.261s20.733 9.705 32.055 8.276c5.651-1.008 13.675-10.671 13.675-10.671l-11.553-14.158-6.995 5.714-24.136-.63-3.046 11.469Z"/><path fill="#F8A86D" d="M379.396 148.191a10.899 10.899 0 0 1-4.748 11.784 11.09 11.09 0 0 1-5.419 1.408c-.602.035-1.205.035-1.807 0a9.581 9.581 0 0 1-1.281-.21s-10.503 3.34-11.343 1.848c-1.387-2.311.84-3.172 10.125-6.302-3.445 0-11.827 1.954-12.604-.819-.567-2.269 10.797-3.928 11.574-4.033-.777 0-12.183.84-12.393-1.26-.273-2.689 1.827-3.214 11.532-3.508-5.315-1.324-12.751-2.101-11.427-4.202 1.323-2.1 7.772-1.449 11.994-.609 2.101.441 3.739.882 3.844.903-.567-.294-4.936-2.667-6.05-4.852-1.113-2.185-.462-4.201.715-4.873 1.176-.673 2.1 1.911 7.037 4.558a14.554 14.554 0 0 1 10.251 10.167Z"/><path fill="#E58F54" d="M373.388 152.35a13.814 13.814 0 0 1-6.659 0s.252 5.21.693 8.865a9.745 9.745 0 0 1-1.281-.21 66.464 66.464 0 0 1-2.101-9.327 31.809 31.809 0 0 1-.294-9.537c2.101.441 3.739.882 3.844.903 0 0 .063 6.89 5.798 9.306Z"/><path fill="url(#O)" d="M437.792 143.843s-18.233 19.976-28.064 24.997c-4.516 1.596-12.604.147-18.905-1.471-5.126-1.323-9.117-2.772-9.117-2.772l2.752-17.708 6.617-.337 9.81-.525s31.509-30.206 32.706-30.563l4.201 28.379Z"/><path fill="#A41E22" d="M391.012 167.369c-5.126-1.323-9.117-2.772-9.117-2.772l2.752-17.708 6.617-.337-.252 20.817Z"/><path fill="#CBEAF4" d="M388.743 160.668a1.978 1.978 0 0 1-1.317 1.737 1.977 1.977 0 0 1-2.604-1.561 1.972 1.972 0 0 1 2.776-2.096c.241.11.457.269.635.465a1.965 1.965 0 0 1 .51 1.455Z"/><path fill="url(#P)" d="m500.579 198.815-81.923-2.604 12.519-51.78 2.5-28.967 17.183-5.966 23.107.735 16.762 7.058.652 29.072 9.2 52.452Z"/><path fill="#A41E22" d="m462.516 197.597-4.936-.147 3.508-87.637 1.827.063-.399 87.721Z"/><path fill="#fff" d="M481.338 131.302c-6.848 8.739-19.872-4.201-19.872-4.201s-17.393 10.713-20.817 2.1c-2.331-5.797 3.823-14.914 8.025-20.207 2.1-2.521 3.571-4.202 3.571-4.202l19.829 1.219s1.303 1.701 2.983 4.201c3.907 6.071 9.852 16.553 6.281 21.09Z"/><path fill="url(#Q)" d="M449.619 108.553c-.525.147.231 14.137 12.162 14.704 11.932.567 12.142-15.125 12.142-15.125s-18.843-.903-24.304.421Z"/><path fill="#CBEAF4" d="M465.982 137.058a2.329 2.329 0 0 0-1.638 1.281 3.356 3.356 0 0 0-.273.462 2.35 2.35 0 0 0 2.674 3.08 2.355 2.355 0 0 0 1.38-.832 2.414 2.414 0 0 0-.717-3.752 2.417 2.417 0 0 0-1.426-.239ZM466.36 157.875a2.329 2.329 0 0 0-1.638 1.281c-.08.19-.143.387-.189.588a2.351 2.351 0 0 0 3.97 2.101 2.42 2.42 0 0 0 .294-2.722 2.417 2.417 0 0 0-2.437-1.248ZM466.318 177.578a2.345 2.345 0 0 0-1.617 1.282 1.582 1.582 0 0 0-.273.483 2.348 2.348 0 0 0 1.082 2.828 2.352 2.352 0 0 0 2.972-.581 2.432 2.432 0 0 0 .304-2.753 2.435 2.435 0 0 0-2.468-1.259Z"/><path fill="#F8A86D" d="M423.928 58.642c0-.44-5.461-11.658-15.418-7.415-8.97 3.823-4.685 27.917 5.608 31.845 7.163 2.752 11.091.504 11.596-1.407.504-1.912-1.786-23.023-1.786-23.023Z"/><path fill="#E2734C" d="M407.438 62.318a.416.416 0 0 1-.486.288.417.417 0 0 1-.333-.456c0-2.563.84-6.47 4.6-7.583 6.974-2.1 10.945 6.575 13.444 9.222v3.067a19.557 19.557 0 0 0-5.818-.42 4.494 4.494 0 0 0-4.202 5.44c.21 3.277 5.273 5.398 9.264 4.201a17.573 17.573 0 0 1 0 4.201l-1.218-2.205s-6.953 1.26-9.999-2.5a7.586 7.586 0 0 1-.093-8.67 7.59 7.59 0 0 1 2.193-2.127 8.592 8.592 0 0 1 8.256-.336s-4.538-7.898-10.503-6.911a7.31 7.31 0 0 0-5.105 4.79Z"/><path fill="#F8A86D" d="M504.276 62.213c0-.462 6.302-11.28 15.86-6.428 8.696 4.39 2.899 28.148-7.625 31.51-7.332 2.29-11.113-.19-11.491-2.101-.378-1.912 3.256-22.98 3.256-22.98Z"/><path fill="#E2734C" d="M520.493 66.94a.419.419 0 0 0 .716.144.42.42 0 0 0 .103-.27c.105-2.563-.399-6.512-4.096-7.857-6.827-2.478-11.343 5.861-13.99 8.403l-.21 3.046a19.934 19.934 0 0 1 5.84 0 4.518 4.518 0 0 1 3.781 5.713c-.4 3.235-5.609 5.042-9.516 3.55a18.08 18.08 0 0 0-.231 4.201l1.365-2.1s6.848 1.701 10.125-1.849a7.557 7.557 0 0 0 .611-8.672A7.567 7.567 0 0 0 512.91 69a8.635 8.635 0 0 0-8.235-.841s5.042-7.604 10.923-6.302a7.21 7.21 0 0 1 4.895 5.084Z"/><path fill="url(#R)" d="M423.655 39.212s-1.092 34.197-1.26 39.911c-.168 5.714 2.646 32.832 40.394 34.051 32.371 1.029 40.941-21.825 41.403-34.261.252-6.302 1.176-36.718 1.176-36.718L494.109 28.96l-57.367-2.1-13.087 12.35Z"/><path fill="url(#S)" d="M423.088 99.92s-5.756-4.664-6.995-16.428a58.645 58.645 0 0 1 9.81-39.617l-2.815 56.044Z"/><path fill="url(#T)" d="M500.769 102.86s6.175-4.201 8.507-15.692a58.582 58.582 0 0 0-6.008-40.352l-2.499 56.044Z"/><path fill="url(#U)" d="M508.436 59.944s-6.302-7.33-21.258-11.637a34.494 34.494 0 0 1-22.393-20.166 38.121 38.121 0 0 1-24.472 18.36c-13.717 3.193-20.061 8.864-20.061 8.864a129.333 129.333 0 0 1 4.685-23.106c5.251-15.629 18.296-28.17 43.062-27.308a40.77 40.77 0 0 1 38.546 30.627 102.795 102.795 0 0 1 1.891 24.366Z"/><path fill="url(#V)" d="M502.995 73.325c-.168 5.82-6.155 10.377-13.339 10.146-7.184-.23-12.856-5.146-12.603-10.986.252-5.84 6.175-10.377 13.359-10.146 7.184.231 12.772 5.147 12.583 10.986Z" opacity=".64"/><path fill="url(#W)" d="M449.828 71.624c-.189 5.84-6.154 10.377-13.359 10.146-7.205-.231-12.856-5.147-12.604-10.965.252-5.819 6.155-10.398 13.339-10.167 7.184.23 12.877 5.146 12.624 10.986Z" opacity=".64"/><path fill="#E58F54" d="M450.522 103.028a33.182 33.182 0 0 1 11.322-1.807 42.034 42.034 0 0 1 11.343 3.319 13.908 13.908 0 0 0-11.448-5.986 15.71 15.71 0 0 0-11.217 4.474Z"/><path fill="#3F2818" d="M473.313 54.168a2.604 2.604 0 0 0 3.445.966 13.319 13.319 0 0 1 8.403-1.05c5.986 1.176 7.436 6.092 7.814 5.608.378-.483-.987-6.974-7.121-9.347-4.769-1.849-10.02.924-12.121 2.269a1.18 1.18 0 0 0-.378 1.554h-.042Z"/><path fill="url(#X)" d="M488.207 62.276a5.696 5.696 0 0 1-3.688 5.137 5.694 5.694 0 0 1-7.619-4.403 5.69 5.69 0 0 1 2.612-5.76 5.688 5.688 0 0 1 3.191-.855 5.664 5.664 0 0 1 3.977 1.794 5.667 5.667 0 0 1 1.527 4.087Z"/><path fill="#3F2818" d="M454.891 53.076a2.581 2.581 0 0 1-3.487.756 13.275 13.275 0 0 0-8.297-1.576c-6.029.799-7.793 5.609-8.151 5.084-.357-.525 1.429-6.827 7.71-8.928 4.873-1.533 9.936 1.576 11.952 3.025a1.217 1.217 0 0 1 .273 1.576v.063Z"/><path fill="url(#Y)" d="M450.312 60.764a5.694 5.694 0 0 1-9.84 3.726 5.697 5.697 0 0 1-1.037-6.243 5.694 5.694 0 0 1 5.373-3.344 5.671 5.671 0 0 1 5.504 5.86Z"/><path fill="#E2734C" d="M463.966 58.516c-2.101 0-5.546 13.906-4.999 14.116 2.534.577 5.146.726 7.73.441 1.008-.945-1.135-14.599-2.731-14.557Z"/><path fill="#6D2B3B" d="M473.334 92.273a17.055 17.055 0 0 1-10.503 3.466 14.952 14.952 0 0 1-11.07-3.571c-5.903-5.336-5.545-14.704-5.545-14.704l33.609 1.07s-.105 8.697-6.491 13.739Z"/><path fill="#431625" d="M455.584 91.79s-4.537-3.55-2.857-7.373a3.659 3.659 0 0 1 3.97-2.101c2.626.462 4.517 1.912 7.08 1.66 3.255-.358 8.171-3.11 9.746-.379a6.608 6.608 0 0 1 .023 5.31 6.617 6.617 0 0 1-3.888 3.618c-4.075 1.596-11.427 2.1-14.074-.735Z"/><path fill="#fff" d="M475.183 78.346a6.916 6.916 0 0 1-2.374 4.516c-4.201 2.836-11.637 2.31-16.931.945a6.027 6.027 0 0 1-5.272-6.301l24.577.84Z"/><path fill="#CBEAF4" d="M474.532 78.325c-1.639 1.848-4.727 3.781-11.028 3.865a14.834 14.834 0 0 1-11.953-4.6l22.981.735Z"/><path fill="url(#Z)" d="M473.334 92.273a14.688 14.688 0 0 1-3.613 2.1 18.904 18.904 0 0 1-6.806 1.366 16.804 16.804 0 0 1-8.213-1.597 12.306 12.306 0 0 1-2.857-1.974 17.77 17.77 0 0 1 21.489.105Z"/><path fill="#E2734C" d="M446.3 77.422a86.685 86.685 0 0 0 16.237 1.932 106.55 106.55 0 0 0 17.372-.861 253.619 253.619 0 0 0-33.609-1.071Z"/><path fill="url(#aa)" d="m340.744 231.165-72.176 37.832-3.823-17.288-2.101-9.495 62.472-32.076 6.176 8.318 2.142 2.857 7.31 9.852Z"/><path fill="#181819" d="m331.292 218.456-66.547 33.253-2.101-9.495 62.472-32.076 6.176 8.318Z"/><path fill="url(#ab)" d="M359.146 161.173s-14.873 17.414-25.775 20.775c-5.566 1.428-16.805-4.076-16.805-4.076l4.685-17.645 8.738 2.29 21.72-10.503 7.437 9.159Z"/><path fill="#F8A86D" d="M370.006 164.807a6.163 6.163 0 0 0 3.151-5.189c.086-.824.086-1.655 0-2.479 0 0 4.201-3.361 3.171-5.293a4.203 4.203 0 0 0-3.802-1.681 7.046 7.046 0 0 0 1.933-2.877 1.891 1.891 0 0 0-.273-1.66c-1.366-1.827-4.411-1.218-4.411-1.218a4.513 4.513 0 0 0 .704-1.695 4.515 4.515 0 0 0-.032-1.834c-.483-1.933-4.853-.714-4.853-.714s1.156-2.374.526-3.361c-1.366-2.101-3.992-.841-7.647 1.89-11.469 6.722-7.835 15.061-7.835 15.061 4.033 10.63 13.927 13.36 19.368 11.05Z"/><path fill="#E2734C" d="m366.204 162.706 6.911-3.088c.086-.824.086-1.655 0-2.479l-6.911 5.567ZM365.805 153.022l6.701-2.857a7.054 7.054 0 0 0 1.932-2.877l-8.633 5.734Z"/><path fill="url(#ac)" d="M327.28 158.064s-3.193 21.783-5.126 25.459l-2.983-1.407-5.356-2.584-3.025-1.513c-1.281-.63-2.521-1.239-3.697-1.848l-2.92-1.471c-6.764-3.466-11.343-5.944-11.343-5.944l-6.701-23.422 26.741 8.276 1.764.547 2.773.861 1.743.546 5.084 1.575 3.046.925Z"/><path fill="#8B9337" d="M327.28 158.064s-3.193 21.783-5.126 25.459l-2.983-1.407 5.063-24.977 3.046.925Z"/><path fill="url(#ad)" d="M202.987 238.055s22.854-1.177 32.181-7.752c4.516-3.55 7.037-15.838 7.037-15.838l-16.805-7.058-3.487 8.402-21.636 10.713 2.71 11.533Z"/><path fill="#F8A86D" d="M201.6 249.65a6.306 6.306 0 0 1-6.05-.672 12.614 12.614 0 0 1-2.1-1.45s-5.273 1.345-6.134-.714a4.2 4.2 0 0 1 .987-4.033 7.1 7.1 0 0 1-3.445-.231 1.854 1.854 0 0 1-1.155-1.239c-.609-2.101 1.723-4.202 1.723-4.202a4.555 4.555 0 0 1-3.214-1.617c-1.24-1.554 2.394-4.201 2.394-4.201s-2.583-.525-2.983-1.639c-.861-2.394 1.786-3.676 6.155-4.894 12.331-5 16.805 2.962 16.805 2.962 5.987 9.557 2.122 19.052-2.983 21.93Z"/><path fill="#E2734C" d="m202.21 245.386-6.554 3.592a12.623 12.623 0 0 1-2.101-1.45l8.655-2.142ZM194.753 239.21l-6.302 3.571a7.1 7.1 0 0 1-3.445-.231l9.747-3.34Z"/><path fill="url(#ae)" d="M249.431 190.119s-.84 5.167-2.226 12.603c-.189 1.03-.378 2.101-.588 3.214-.21 1.114-.526 2.668-.799 4.055-.273 1.386-.441 2.1-.651 3.319l-1.239 5.881-.693 3.151c-4.076-.693-23.296-11.448-23.296-11.448l1.26-3.361 1.702-4.621.651-1.702 1.008-2.71.651-1.764 9.747-26.216 14.473 19.599Z"/><path fill="#8B9337" d="m243.969 219.212-.693 3.151c-4.075-.693-23.296-11.448-23.296-11.448l1.261-3.361c5.398 2.605 17.498 8.906 22.728 11.658Z"/><path fill="url(#af)" d="m333.182 212.658-73.542 36.194-1.239-4.811-12.037-46.759-11.406-26.741 12.352-13.36 20.732-10.208 18.129-1.639 14.242 25.333 29.702 38.063 3.067 3.928Z"/><path fill="#8B9337" d="M269.177 146.594c3.025 6.302 5.272 16.049-4.327 20.775-10.503 5.21-17.351-5.251-19.578-9.536.567-3.172 1.176-5.357 1.176-5.357l18.086-8.234s1.87.798 4.643 2.352Z"/><path fill="url(#ag)" d="M245.776 156.95c-.399.357 6.848 12.373 17.624 7.184 10.777-5.188 3.677-19.094 3.677-19.094s-17.141 8.087-21.301 11.91Z"/><path fill="#8B9337" d="m333.182 212.658-73.542 36.194-1.239-4.811 71.714-35.311 3.067 3.928Z"/><path fill="url(#ah)" d="M178.62 100.927c-.882 28.653 29.408 71.925 76.735 49.911 44.112-20.607 36.277-66.316 17.162-89.465-25.081-30.27-92.217-15.965-93.897 39.554Z"/><path fill="#F8A86D" d="M199.647 124.958c-.21-.399-10.314-7.709-17.099.714-6.134 7.584 8.907 26.825 19.914 25.481 7.625-.946 10.02-4.79 9.579-6.701-.441-1.912-12.394-19.494-12.394-19.494Z"/><path fill="#E2734C" d="M186.812 135.965a.419.419 0 0 1-.798.231c-1.134-2.31-2.311-6.091.483-8.843 5.21-5.084 12.772.651 16.196 1.827l1.365 2.689a20.13 20.13 0 0 0-5.335 2.353 4.488 4.488 0 0 0-2.041 3.159 4.5 4.5 0 0 0 1.074 3.605c1.702 2.794 7.185 2.289 10.104-.693a17.387 17.387 0 0 1 1.975 3.76l-2.101-1.387s-5.587 4.475-9.978 2.5a7.565 7.565 0 0 1-3.15-10.503 8.626 8.626 0 0 1 7.142-4.201s-7.731-4.832-12.604-1.156a7.287 7.287 0 0 0-2.332 6.659Z"/><path fill="#F8A86D" d="M272.222 90.424c-.189-.399.169-12.855 10.987-13.107 9.746-.231 15.796 23.484 8.045 31.32-5.399 5.461-9.894 5.041-11.133 3.508-1.24-1.534-7.899-21.72-7.899-21.72Z"/><path fill="#E2734C" d="M288.776 86.895a.42.42 0 1 0 .672-.504c-1.134-2.31-3.424-5.545-7.31-5-7.205 1.009-7.268 10.504-8.403 13.949l1.261 2.794a19.851 19.851 0 0 1 5.125-2.794 4.495 4.495 0 0 1 6.008 3.256c1.176 3.067-2.563 7.1-6.722 7.604a16.46 16.46 0 0 0 1.806 3.844l.19-2.5s6.848-1.743 8.066-6.302a7.564 7.564 0 0 0-3.535-7.938 7.56 7.56 0 0 0-2.893-1.01 8.632 8.632 0 0 0-7.667 3.109s.882-9.054 6.722-10.503a7.224 7.224 0 0 1 6.68 1.995Z"/><path fill="url(#ai)" d="m190.278 107.943 17.666 35.879c2.542 5.188 17.771 27.728 51.654 11.049 29.052-14.305 25.88-38.483 20.46-49.679-2.794-5.735-16.238-32.959-16.238-32.959l-16.153-6.302-51.612 25.207-5.777 16.805Z"/><path fill="url(#aj)" d="M279.533 100.801c2.584 5.252-.546 12.058-6.995 15.251-6.449 3.193-13.78 1.491-16.364-3.739-2.584-5.231.567-12.058 7.016-15.23 6.449-3.172 13.78-1.512 16.343 3.718Z" opacity=".64"/><path fill="url(#ak)" d="M227.585 126.135c2.584 5.23-.567 12.057-7.016 15.229-6.449 3.172-13.759 1.512-16.343-3.739-2.583-5.252.568-12.058 7.016-15.23 6.449-3.171 13.822-1.575 16.343 3.74Z" opacity=".64"/><path fill="#E58F54" d="M243.97 151.657a32.745 32.745 0 0 1 9.137-6.911 42.347 42.347 0 0 1 11.596-2.395 13.996 13.996 0 0 0-12.961 0 15.657 15.657 0 0 0-7.772 9.306Z"/><path fill="url(#al)" d="M193.87 125.988s3.067.441 12.793-7.374c17.372-13.948 28.841-33.61 29.408-41.297 6.911 6.659 22.687 16.405 39.156 11.196 3.424-5.147-6.134-36.278-43.42-36.572a48.317 48.317 0 0 0-45.73 29.934c-8.654 19.956 3.277 39.575 7.793 44.113Z"/><path fill="#E2734C" d="M234.916 106.053c-1.87 1.05 1.638 14.872 2.227 14.704a23.11 23.11 0 0 0 7.037-3.256c.441-1.218-7.878-12.246-9.264-11.448Z"/><path fill="url(#am)" d="M224.014 114.392a5.69 5.69 0 0 1-6.931 7.912 5.686 5.686 0 0 1-2.687-1.924 5.687 5.687 0 0 1-.418-6.311 5.705 5.705 0 0 1 2.411-2.261 5.703 5.703 0 0 1 4.348-.287 5.685 5.685 0 0 1 3.277 2.871Z"/><path fill="#3F2818" d="M225.799 105.801a3.045 3.045 0 0 1-3.276 2.1 15.042 15.042 0 0 0-8.865 1.891c-5.819 3.235-5.945 8.402-6.491 8.171-.546-.231-1.113-8.402 4.537-12.855a11.283 11.283 0 0 1 13.276-.736c.462.378 1.009.82.819 1.387v.042Z"/><path fill="url(#an)" d="M258.149 97.903a5.67 5.67 0 0 1-6.916 7.87 5.67 5.67 0 0 1-3.089-8.203 5.672 5.672 0 0 1 2.4-2.251 5.694 5.694 0 0 1 7.605 2.584Z"/><path fill="#3F2818" d="M240.546 98.533a3.023 3.023 0 0 0 3.697-1.282 14.975 14.975 0 0 1 6.911-5.881c6.112-2.647 10.377.483 10.503-.169.126-.65-5.987-6.007-12.961-4.2a11.303 11.303 0 0 0-8.675 10.082c0 .61 0 1.303.588 1.492l-.063-.042Z"/><path fill="#6D2B3B" d="M259.052 131.428a17.01 17.01 0 0 1-7.562 7.961 15.052 15.052 0 0 1-11.448 2.101c-7.73-1.933-11.827-10.503-11.827-10.503l30.165-14.851s3.928 7.898.672 15.292Z"/><path fill="#431625" d="M243.151 139.326s-5.672-.987-5.987-5.146a3.651 3.651 0 0 1 2.605-3.697c2.52-.819 4.873-.441 7.016-1.891 2.709-1.827 5.755-6.554 8.402-4.894a6.592 6.592 0 0 1 2.181 7.377 6.586 6.586 0 0 1-1.404 2.328c-2.878 3.235-9.158 7.247-12.813 5.923Z"/><path fill="#fff" d="M254.136 118.278a7.12 7.12 0 0 1 0 5.105c-2.415 4.474-9.2 7.478-14.515 8.78a6.028 6.028 0 0 1-7.583-3.025l22.098-10.86Z"/><path fill="#CBEAF4" d="M253.569 118.551c-.588 2.416-2.394 5.546-7.94 8.592a14.915 14.915 0 0 1-12.709 1.575l20.649-10.167Z"/><path fill="url(#ao)" d="M259.052 131.428a15.311 15.311 0 0 1-2.101 3.55 19.37 19.37 0 0 1-5.377 4.411 16.811 16.811 0 0 1-8.004 2.437 13.033 13.033 0 0 1-3.445-.399c.799-2.542 6.428-11.385 18.927-9.999Z"/><path fill="#E2734C" d="M228.215 131.029a89.119 89.119 0 0 0 15.251-5.924 107.665 107.665 0 0 0 14.914-8.927 251.277 251.277 0 0 0-30.165 14.851Z"/><path fill="url(#ap)" d="M562.883 160.437s14.873 17.414 25.754 20.796c5.566 1.429 16.804-4.075 16.804-4.075l-4.663-17.666-8.675 2.353-21.721-10.503-7.499 9.095Z"/><path fill="#F8A86D" d="M552.863 166.403a6.127 6.127 0 0 1-3.151-5.209 13.005 13.005 0 0 1-.105-2.479s-4.201-3.361-3.151-5.294a4.212 4.212 0 0 1 3.802-1.68 7.064 7.064 0 0 1-1.932-2.878 1.881 1.881 0 0 1 .231-1.722c1.365-1.807 4.411-1.219 4.411-1.219a4.584 4.584 0 0 1-.672-3.529c.483-1.932 4.852-.693 4.852-.693s-1.155-2.374-.504-3.382c1.365-2.101 3.991-.84 7.625 1.891 11.47 6.743 7.815 15.082 7.815 15.082-3.95 10.755-13.843 13.402-19.221 11.112Z"/><path fill="#E2734C" d="m556.623 164.282-6.911-3.088a13.005 13.005 0 0 1-.105-2.479l7.016 5.567ZM556.959 154.598l-6.701-2.857a7.064 7.064 0 0 1-1.932-2.878l8.633 5.735Z"/><path fill="url(#aq)" d="M629.115 168.252s-4.768 2.352-11.784 5.629l-3.025 1.408-3.844 1.743-3.151 1.408-5.609 2.478-3.046 1.282c-2.1-3.739-6.134-25.754-6.134-25.754l3.572-.966 4.915-1.323 1.827-.484 2.878-.777 1.849-.504 27.896-7.52-6.344 23.38Z"/><path fill="#F05A28" d="m601.702 180.918-3.046 1.282c-2.1-3.739-6.134-25.754-6.134-25.754l3.572-.966c1.554 5.945 4.39 19.578 5.608 25.438Z"/><path fill="url(#ar)" d="M719 237.466s-22.855-1.197-32.181-7.772c-4.517-3.55-7.037-15.859-7.037-15.859l16.805-7.058 3.508 8.402 21.573 10.797-2.668 11.49Z"/><path fill="#F8A86D" d="M722.718 248.222a6.298 6.298 0 0 0 6.029-.673 11.423 11.423 0 0 0 2.1-1.449s5.273 1.344 6.134-.714a4.197 4.197 0 0 0-.966-4.033 7.1 7.1 0 0 0 3.445-.232 1.867 1.867 0 0 0 1.134-1.218c.63-2.1-1.701-4.201-1.701-4.201a4.556 4.556 0 0 0 3.193-1.597c1.239-1.575-2.395-4.201-2.395-4.201s2.584-.525 3.004-1.638c.84-2.374-1.786-3.676-6.155-4.895-12.33-4.999-16.805 2.962-16.805 2.962-6.008 9.495-2.142 19.011 2.983 21.889Z"/><path fill="#E2734C" d="m722.088 243.936 6.659 3.613a11.423 11.423 0 0 0 2.1-1.449l-8.759-2.164ZM729.566 237.781l6.302 3.572a7.1 7.1 0 0 0 3.445-.232l-9.747-3.34Z"/><path fill="url(#as)" d="M702.048 210.264s-19.22 10.734-23.296 11.427c-.231-1.071-.483-2.101-.693-3.214-.441-1.975-.84-3.928-1.218-5.819-.231-1.134-.441-2.226-.672-3.319-.231-1.092-.525-2.751-.778-4.054-.252-1.302-.42-2.1-.609-3.214-1.386-7.478-2.1-12.603-2.1-12.603l14.494-19.578 9.726 26.237.651 1.743 1.008 2.71.63 1.722 1.849 5 1.008 2.962Z"/><path fill="#F05A28" d="M702.048 210.264s-19.221 10.734-23.296 11.427c-.231-1.071-.483-2.101-.693-3.214l22.876-11.196 1.113 2.983Z"/><path fill="url(#at)" d="m652.305 265.467-73.983-34.155 11.385-13.591 6.239-7.436 63.502 29.975-2.815 9.978-.988 3.445-3.34 11.784Z"/><path fill="#181819" d="m656.633 250.238-66.925-32.517 6.238-7.436 63.502 29.975-2.815 9.978Z"/><path fill="url(#au)" d="m662.367 248.201-73.521-36.257 3.067-3.928 29.745-38.021 14.242-25.354 18.128 1.68 20.712 10.209 12.372 13.36-11.427 26.741-12.078 46.738-1.24 4.832Z"/><path fill="#F05A28" d="M675.707 157.118c-3.214 6.302-9.516 13.969-19.116 9.222-10.503-5.209-6.407-16.931-4.369-21.321 2.857-1.47 4.957-2.332 4.957-2.332l17.54 9.306s.504 2.101.988 5.125Z"/><path fill="url(#av)" d="M653.272 145.04c-.525 0-5.629 12.961 5.042 18.338 10.671 5.378 17.309-8.759 17.309-8.759s-16.784-8.697-22.351-9.579Z"/><path fill="#F05A28" d="m662.367 248.201-73.521-36.257 3.067-3.928 71.694 35.353-1.24 4.832Z"/><path fill="url(#aw)" d="M700.872 54.714s3.718-7.184 10.503-3.865a8.113 8.113 0 0 1 5.11 8.052 8.118 8.118 0 0 1-.909 3.25s-6.554.083-14.704-7.437Z"/><path fill="url(#ax)" d="M633.253 89.269s10.861-26.027 26.447-35.521c15.586-9.495 31.194-6.302 52.095 4.201 31.047 15.629 32.223 27.749 33.189 36.508 1.786 11.134-5.335 34.765-9.956 41.865-4.622 7.101-99.443-33.021-101.775-47.053Z"/><path fill="#F8A86D" d="M650.52 88.87c.21-.4-.147-12.856-10.965-13.129-9.747-.23-15.797 23.485-8.066 31.32 5.398 5.462 9.893 5.042 11.154 3.508 1.26-1.533 7.877-21.7 7.877-21.7Z"/><path fill="#E2734C" d="M633.989 85.404a.422.422 0 0 1-.702-.197.423.423 0 0 1 .029-.286c1.135-2.31 3.424-5.546 7.31-5 7.206 1.009 7.269 10.503 8.403 13.948l-1.26 2.794a18.913 18.913 0 0 0-5.126-2.794 4.473 4.473 0 0 0-6.008 3.256c-1.176 3.046 2.563 7.1 6.722 7.604a18.278 18.278 0 0 1-1.785 3.845l-.189-2.521s-6.869-1.723-8.088-6.302a7.558 7.558 0 0 1 1.296-5.857 7.563 7.563 0 0 1 5.153-3.07 8.57 8.57 0 0 1 7.646 3.108s-.861-9.053-6.701-10.629a7.29 7.29 0 0 0-6.7 2.1Z"/><path fill="#F8A86D" d="M722.214 125.336c.189-.399 10.293-7.709 17.099.715 6.113 7.604-9.012 26.824-19.935 25.48-7.625-.966-10.041-4.79-9.578-6.722.462-1.933 12.414-19.473 12.414-19.473Z"/><path fill="#E2734C" d="M735.027 136.343a.424.424 0 0 0 .3.46.42.42 0 0 0 .499-.228c1.134-2.29 2.31-6.092-.483-8.844-5.21-5.083-12.772.651-16.196 1.828l-1.45 2.688a20.16 20.16 0 0 1 5.336 2.29 4.524 4.524 0 0 1 1.976 5.061 4.522 4.522 0 0 1-.905 1.703c-1.701 2.794-7.184 2.29-10.104-.693a17.406 17.406 0 0 0-1.974 3.76l2.1-1.387s5.546 4.391 9.999 2.521a7.58 7.58 0 0 0 3.172-10.503 8.626 8.626 0 0 0-7.142-4.201s7.73-4.831 12.604-1.134a7.208 7.208 0 0 1 2.268 6.679Z"/><path fill="url(#ay)" d="m658.313 71.078-17.687 35.878c-2.562 5.168-11.154 30.984 22.729 47.684 29.03 14.326 46.213-2.92 51.843-14.053 2.857-5.693 16.258-32.959 16.258-32.959l-4.789-16.7-51.36-25.606-16.994 5.756Z"/><path fill="url(#az)" d="M718.369 137.52c-2.583 5.23-9.915 6.89-16.363 3.718-6.449-3.172-9.579-9.999-6.995-15.229 2.583-5.231 9.893-6.911 16.342-3.74 6.449 3.172 9.6 9.999 7.016 15.251Z" opacity=".64"/><path fill="url(#aA)" d="M666.674 111.703c-2.584 5.231-9.894 6.911-16.343 3.719-6.449-3.193-9.599-9.999-7.016-15.23 2.584-5.23 9.915-6.91 16.364-3.718 6.449 3.193 9.579 9.999 6.995 15.229Z" opacity=".64"/><path fill="#E58F54" d="M656.381 140.314a32.66 32.66 0 0 1 11.049 3.024 42.17 42.17 0 0 1 8.97 7.731 13.954 13.954 0 0 0-7.962-10.23 15.555 15.555 0 0 0-12.057-.525Z"/><path fill="url(#aB)" d="M649.386 86.664s19.976-6.995 44.427 5.063c24.451 12.057 29.997 32.307 29.997 32.307a95.037 95.037 0 0 0 8.844-17.939c2.541-7.1 4.684-28.904-24.283-43.189-28.968-14.284-44.113-1.932-48.545 4.307a111.672 111.672 0 0 0-10.44 19.451Z"/><path fill="url(#aC)" d="M648.294 85.677a3.087 3.087 0 0 0 3.613 2.1 64.51 64.51 0 0 1 42.012 5.987c18.149 8.928 24.871 21.762 27.16 27.938a3.083 3.083 0 0 0 3.204 1.977c.45-.046.883-.19 1.271-.422a3.072 3.072 0 0 0 1.218-3.823 64.763 64.763 0 0 0-30.753-31.867c-21.006-10.355-38.105-7.688-45.625-5.755a3.088 3.088 0 0 0-2.1 3.865Z"/><path fill="url(#aD)" d="M707.636 118.782a5.676 5.676 0 0 1-10.455-.688 5.677 5.677 0 0 1 4.623-7.447 5.67 5.67 0 0 1 3.248.531 5.654 5.654 0 0 1 2.584 7.604Z"/><path fill="#3F2818" d="M696.418 105.129a3.029 3.029 0 0 0 3.256 2.1c3.089-.3 6.194.368 8.886 1.912 5.819 3.235 5.945 8.507 6.47 8.15.525-.357 1.134-8.402-4.517-12.835a11.212 11.212 0 0 0-13.275-.735c-.484.378-1.009.798-.82 1.366v.042Z"/><path fill="url(#aE)" d="M673.753 101.747a5.67 5.67 0 0 1-5.457 3.145 5.667 5.667 0 0 1-4.997-3.834 5.674 5.674 0 0 1 1.626-6.086 5.671 5.671 0 0 1 6.244-.83 5.645 5.645 0 0 1 3.166 5.464 5.673 5.673 0 0 1-.582 2.141Z"/><path fill="#3F2818" d="M681.672 97.945a3.047 3.047 0 0 1-3.697-1.303 15.102 15.102 0 0 0-6.911-5.882c-6.113-2.625-10.377.483-10.503-.168-.126-.65 5.987-6.007 12.94-4.2a11.263 11.263 0 0 1 8.675 10.082c0 .61 0 1.281-.588 1.492l.084-.021Z"/><path fill="#E2734C" d="M687.029 105.318c-1.996-.841-10.797 10.356-10.377 10.776a21.94 21.94 0 0 0 6.869 3.592c1.281-.441 4.978-13.738 3.508-14.368Z"/><path fill="#6D2B3B" d="M681.609 139.935a17.178 17.178 0 0 1-10.923-1.155 15.195 15.195 0 0 1-8.612-7.835c-3.151-7.31 1.05-15.713 1.05-15.713l30.165 14.873s-3.802 7.877-11.68 9.83Z"/><path fill="#431625" d="M665.645 132.142s-2.668-5.104.441-7.898a3.692 3.692 0 0 1 4.495-.231c2.101 1.491 3.298 3.592 5.756 4.411 3.109 1.03 8.696.567 9.032 3.718a6.623 6.623 0 0 1-2.156 4.894 6.612 6.612 0 0 1-5.07 1.702c-4.348-.336-11.322-2.899-12.498-6.596Z"/><path fill="#fff" d="M689.045 128.004a7.039 7.039 0 0 1-4.033 3.151c-5.02.819-11.532-2.731-15.796-6.155a6.025 6.025 0 0 1-2.227-7.856l22.056 10.86Z"/><path fill="#CBEAF4" d="M688.478 127.731c-2.29.987-5.882 1.491-11.658-1.05a14.995 14.995 0 0 1-8.991-9.117l20.649 10.167Z"/><path fill="url(#aF)" d="M681.609 139.936c-1.374.33-2.788.472-4.201.42a19.442 19.442 0 0 1-6.764-1.576 16.801 16.801 0 0 1-6.806-4.852 12.712 12.712 0 0 1-1.806-2.983 17.815 17.815 0 0 1 19.577 8.991Z"/><path fill="#E2734C" d="M663.124 115.232a87.69 87.69 0 0 0 13.99 8.403 109.338 109.338 0 0 0 16.175 6.302 252.94 252.94 0 0 0-30.165-14.705Z"/></g><g clip-path="url(#aG)"><path fill="url(#aH)" d="M843.88 590.368a382.288 382.288 0 0 1-362.377 381.793c-6.609.33-13.24.516-19.932.516-211.139 0-382.31-171.17-382.31-382.309 0-211.139 171.171-382.31 382.31-382.31S843.88 379.229 843.88 590.368Z" style="mix-blend-mode:multiply"/><path fill="#18BDCE" d="M843.881 590.368a382.293 382.293 0 0 1-105.011 263.2 382.294 382.294 0 0 1-257.366 118.593c-6.61.33-13.24.516-19.933.516-211.139 0-382.31-171.17-382.31-382.309 0-211.139 171.171-382.31 382.31-382.31s382.31 171.171 382.31 382.31Z"/><path fill="#3E9894" d="M843.881 590.368a381.583 381.583 0 0 1-139.444 295.371c-4.131-3.222-8.428-6.093-13.55-6.754-7.56-.992-14.789 3.098-22.328 4.275-10.039 1.55-20.077-2.065-29.558-5.763l-44.988-17.205c-10.988-4.131-22.266-8.593-30.693-16.772-9.688-9.419-14.459-22.969-15.864-36.416-1.404-13.446.455-26.976 2.252-40.381 3.456-25.86 6.899-51.728 10.327-77.602 3.016-22.452 5.97-46.33-.619-68.473-3.264-10.947-7.808-16.111-3.677-27.43 3.718-10.142 10.865-18.961 13.302-29.558 2.437-10.596-1.177-21.729-4.668-31.83-2.293-6.63-4.606-13.694-3.057-20.655 1.735-7.704 8.262-15.285 4.999-22.473-2.066-4.358-6.796-6.506-10.328-9.811-8.159-7.87-7.519-21.048-5.164-32.16 2.355-11.113 5.701-23.052 1.115-33.421a28.237 28.237 0 0 0-8.964-11.505c-2.644-1.756-6.61 1.467-8.014-3.676-.868-3.181.599-6.466 2.065-9.419a10873.3 10873.3 0 0 1 8.82-18.26c2.995-6.196 6.197-12.599 11.154-17.329 4.957-4.731 11.546-7.54 13.818-13.736a13.692 13.692 0 0 0-6.775-16.235 16.87 16.87 0 0 0-18.011 2.375c-4.627 3.801-7.126 9.522-9.481 15.037-3.821 8.944-7.745 18.59-6.031 28.153.62 3.491 2.065 7.064 1.033 10.473-2.5 8.778-13.158-.414-18.59.97-4.276 1.095-9.316 6.982-8.799 11.34.991 8.455 1.976 16.889 2.953 25.303.992 8.262 1.921 16.958-1.032 24.786-6.197 16.525-26.357 22.349-39.246 34.412-8.943 8.262-14.293 19.499-20.304 29.93-5.06 8.716-5.06 17.619-17.185 18.589-14.066.992-25.096-6.196-33.048-17.288-10.328-14.149-12.228-31.314-14.232-48.375a61.226 61.226 0 0 1-.392-15.181c1.301-10.122 6.981-19.561 6.651-29.744-.29-9.688-5.929-18.28-11.361-26.294a36.562 36.562 0 0 0-7.663-9.006 12.39 12.39 0 0 0-11.133-2.479c-4.71 1.57-7.354 6.734-7.911 11.65-.558 4.916.495 9.894.702 14.851.207 4.957-.599 10.328-4.131 13.86s-9.378 4.379-14.459 5.783c-5.081 1.405-10.575 4.772-10.802 10.018-.352 7.766 11.918 15.987 17.04 20.924 7.973 7.684 13.757 14.459 17.97 24.972 4.214 10.514 7.168 22.019 13.426 31.665 3.016 4.668 6.899 9.068 8.015 14.459 1.115 5.391-.744 11.277-2.81 16.71-5.659 15.822-11.326 31.658-16.999 47.507-1.838 5.143-4.131 10.803-9.13 13.054-4.998 2.252-11.257 0-16.689-1.859s-12.269-2.85-16.235 1.322c-3.47 3.615-2.975 9.46-1.343 14.19 1.632 4.73 4.131 9.337 4.131 14.335a14.462 14.462 0 0 1-6.196 11.753c-5.123 3.532-11.361 1.88-17.041 3.573-6.837 2.066-13.88 3.471-20.841 5.082-14.025 3.243-28.339 6.609-41.104 13.508-11.753 6.321-20.842 16.525-29.682 26.542-9.791 11.092-20.263 26.109-13.736 39.411 4.834 9.852 16.772 13.488 27.43 16.173 30.983 7.849 61.966 16.297 92.764 24.786l65.312 17.867c23.939 6.527 48.106 13.178 69.939 24.972 21.832 11.795 41.31 29.393 50.812 52.341 8.489 20.655 8.055 44.285 2.189 65.849a179.354 179.354 0 0 1-17.371 40.815c-6.61.331-13.24.517-19.932.517-211.056-.104-382.227-171.274-382.227-382.413a383.37 383.37 0 0 1 20.82-124.779c5.495-15.905 11.361-37.572 21.172-51.287 5.061-7.064 15.987-11.609 22.948-16.772a157.202 157.202 0 0 0 24.787-22.246c9.088-10.328 16.235-22.246 23.34-34.061l23.506-39.245c6.733-11.175 14.789-16.586 25.55-24.187a380.783 380.783 0 0 1 220.186-69.733c211.077 0 382.31 171.171 382.31 382.31Z"/><path fill="#75BF43" d="M832.541 587.992c-6.775-3.49-13.571-6.981-20.449-10.327a46.378 46.378 0 0 1-20.841-18.859 48.07 48.07 0 0 1-2.706-8.592c13.323 6.403 24.002 13.095 32.326 23.072 5.473 6.589 10.658 13.446 21.605 15.367.124-1.9.351-3.78.579-5.639v-1.218c-1.322-10.328-2.541-20.656-3.925-30.983a390.187 390.187 0 0 0-53.704-151.9c-34.019-55.996-78.325-102.058-134.59-136.118a402.299 402.299 0 0 0-164.829-55.914 394.85 394.85 0 0 0-43.563-2.541 22.838 22.838 0 0 1-7.022 0 408.252 408.252 0 0 0-38.812 2.479l-1.694.206a56.472 56.472 0 0 0-8.489 6.197c-3.139 2.706-6.341 4.751-10.658.268 3.573-1.569 6.878-2.726 9.873-4.234.806-.434 1.715-.847 2.644-1.281a414.263 414.263 0 0 0-23.072 3.718 27.2 27.2 0 0 1 .289 4.131 7.144 7.144 0 0 1-3.181 5.495 71.663 71.663 0 0 1-13.632 4.627 35.127 35.127 0 0 1-7.663.144c-14.81.331-17.785 4.131-14.067 18.714a66.079 66.079 0 0 0-7.415 5.763 7.601 7.601 0 0 0-2.065 5.308c0 .868 3.077 2.293 4.544 2.066 7.973-1.136 15.946-2.458 23.795-4.131 7.849-1.673 15.533-4.255 23.32-6.197 7.787-1.942 16.359-3.243 24.063-6.197 11.98-4.523 23.774-5.432 34.949.868 9.109 5.122 17.743 4.131 26.852 1.136 6.362-2.066 12.662-4.131 19.829-6.61 0 7.519-.392 15.017 9.77 17.578-8.035 3.016-14.748 5.742-21.585 8.076-7.663 2.603-15.078 2.603-21.502-3.346-7.725-7.147-16.276-8.386-26.377-5.102-15.657 5.123-31.479 10.039-48.416 8.076a24.12 24.12 0 0 0-8.944 1.116c-10.493 2.83-15.12 9.191-14.128 20.015a35.122 35.122 0 0 1-11.34 30.033c-1.508 1.446-2.85 3.057-4.317 4.544-15.264 15.388-5.122 29.909 7.746 35.114 17.433 6.94 35.403 12.517 53.291 18.218 6.775 2.065 12.992-.516 17.825-5.412 5.288-5.35 10.886-6.424 17.661-3.305a26.848 26.848 0 0 0 26.604-1.466c6.361-3.904 12.083-5.288 18.775.826 2.706 2.479 8.965 1.487 13.571 1.322 4.606-.165 9.419-1.88 14.128-1.88a13.999 13.999 0 0 0 13.199-7.456c2.065-3.594 3.16-7.684 4.895-11.464a193.455 193.455 0 0 1 9.605-19.87c6.3-10.328 6.197-13.798-2.293-22.556-2.189-2.231-4.131-4.689-6.506-7.353 13.24-2.52 24.786-1.157 35.114 6.671 2.871 2.066 6.754 2.954 10.204 4.255 11.587 4.317 20.077 11.216 22.101 24.353a11.546 11.546 0 0 0 4.399 7.581c5.123 2.953 5.825 7.89 7.808 12.517 3.243 7.642 7.147 14.995 10.865 22.411 1.115 2.272 3.077 4.317 3.573 6.692a8.259 8.259 0 0 1-1.487 6.197c-.578.723-3.718 0-5.35-.703-8.716-4.131-16.958-9.749-26.067-12.641-10.327-3.263-12.661-1.322-17.701 8.262-5.908 11.278-6.837 21.544-.331 34.082 5.99 11.567 8.262 25.53 9.997 38.728 2.066 15.285 6.052 21.854 21.069 25.179a139.802 139.802 0 0 0 22.721 3.057c10.596.579 14.727-4.626 12.517-15.285a69.154 69.154 0 0 0-4.131-12.393c-1.653-3.986-3.863-7.746-6.362-12.682 5.453 2.995 9.852 5.35 14.19 7.787 9.212 5.205 11.774 13.013 5.453 21.419a111.341 111.341 0 0 1-19.416 19.892c-8.758 6.919-11.794 15.718-12.063 26.108a39.24 39.24 0 0 1-8.055 23.939c-6.465 8.366-4.73 14.459 4.317 19.953 3.325 2.066 8.943 5.288 8.675 7.333a32.074 32.074 0 0 1-6.672 15.512c-3.222 3.904-8.696 5.97-13.219 8.799-10.328 6.404-12.538 12.972-8.262 24.167.991 2.603 2.83 4.937 3.449 7.601 3.553 15.595 14.335 19.685 28.649 18.59 2.995-.227 6.031 0 7.477 0-4.792 8.366-10.534 16.855-14.603 26.047a41.446 41.446 0 0 0-2.974 18.238c.433 8.262-1.302 15.43-7.498 20.78-13.881 12-19.024 28.049-22.721 45.173a23.154 23.154 0 0 0 3.594 18.59 16.756 16.756 0 0 1 3.2 8.284 16.758 16.758 0 0 1-1.486 8.756c-1.921 4.71-2.912 9.811-4.854 14.459a10.06 10.06 0 0 0 2.562 12.001c7.146 7.332 13.839 15.161 21.481 21.894 2.974 2.624 8.014 2.954 12.145 4.131a119.837 119.837 0 0 0 15.203 4.131c5.122.847 10.885 2.066 15.553.599 16.091-5.143 31.851-11.277 47.631-17.329a16.77 16.77 0 0 0 6.507-5.102c11.05-13.674 26.583-18.797 43.376-23.114-1.053 4.751-1.859 9.213-3.036 13.571-1.57 5.804 0 9.708 5.618 12.517 11.836 5.99 13.034 8.903 8.717 21.502-3.305 9.646-7.354 19.045-10.783 28.649a26.104 26.104 0 0 0-1.466 5.742c40.071-42.963 69.629-94.153 88.673-153.572a366.042 366.042 0 0 0 16.938-88.963 47.747 47.747 0 0 1 1.28-6.465v-36.973c-3.511-1.817-6.981-3.656-10.472-5.453ZM710.22 459.186c.434-5.701 3.821-9.337 10.555-7.478 5.969 1.653 12.393 2.066 17.949 4.689 10.328 4.833 12.394 13.984 4.978 22.721-8.262 9.791-16.297 19.581-18.589 32.119-2.541-4.585-4.483-9.563-7.684-13.508-9.46-11.691-8.262-25.117-7.209-38.543Zm52.816 91.565a56.365 56.365 0 0 1-13.24 14.975 49.572 49.572 0 0 0-17.475 23.63c-5.659 16.276-21.853 21.853-36.993 12.888a81.522 81.522 0 0 1-8.903-6.692c-6.465-5.143-10.1-4.73-16.07 1.591a19048.85 19048.85 0 0 0-28.401 29.785 74.2 74.2 0 0 1-5.763 4.874c0-7.828.517-14.458-.123-21.068-.806-8.097-.765-15.45 4.709-22.391 1.756-2.23 1.384-7.002.537-10.327-2.293-8.799-1.198-13.839 4.978-19.334 6.176-5.494 12.393-5.163 19.189-1.384 5.06 2.81 10.327 5.144 15.677 7.519a18.707 18.707 0 0 0 5.949 1.818c5.391.475 11.484.95 13.922-5.061 2.437-6.011-2.603-9.894-6.941-12.083-5.866-2.954-12.537-4.338-18.879-6.362-2.974-.95-5.969-1.838-9.646-2.954 13.22-10.142 27.926-8.386 37.469 3.594 4.771 5.99 11.526 7.25 17.826 2.809 4.523-3.16 3.16-7.394.475-10.947-7.106-9.419-7.209-9.357 1.342-18.342 1.797 3.759 2.789 8.469 5.681 10.989 2.499 2.189 7.167 1.921 10.885 2.747l.558-2.066 2.292 8.262c11.898-6.919 15.017-19.023 21.027-28.917 8.242 10.369 8.552 28.422-.082 42.509v-.062Z"/><path fill="#75BF43" d="M388.637 986.723c4.4 0 8.841.888 13.158.434 9.728-1.033 17.04-4.896 18.589-16.05 1.095-7.456 5.329-12.661 13.757-13.653a28.562 28.562 0 0 0 10.327-3.945c6.879-3.924 9.605-11.691 4.834-17.784a162.103 162.103 0 0 0-21.709-22.37c-4.338-3.759-10.018-1.528-14.17 1.735-5.7 4.482-10.844 3.883-17.391 1.425-12.063-4.544-21.482-11.815-30.735-20.758a158.556 158.556 0 0 0-34.825-25.282 149.676 149.676 0 0 1-38.998-30.983 94.229 94.229 0 0 0-20.882-15.698c-7.353-4.359-15.595-7.188-23.341-10.865-12.393-5.908-24.166-12.559-33.337-23.444a43.088 43.088 0 0 0-39.245-15.471c-11.423 1.219-19.726-4.337-27.451-11.133a13.239 13.239 0 0 1-3.264-8.799c-.289-10.452.31-20.945 0-31.417a28.932 28.932 0 0 0-3.098-10.059 23.818 23.818 0 0 0-3.801-4.957c-9.377-11.836-9.398-11.857.124-23.589 3.842-4.709 5.784-9.873 2.21-15.326-3.573-5.453-9.295-5.949-15.45-3.966-13.447 4.317-19.767-.909-18.342-14.644.22-3.938.172-7.885-.145-11.815 0-3.491-1.156-7.188-.289-10.328 2.541-9.357 6.3-18.59 16.525-21.667 8.53-2.624 23.588 4.337 28.628 12.248 5.04 7.911 9.563 15.967 14.81 23.63a22.503 22.503 0 0 1 4.269 11.157 22.51 22.51 0 0 1-2.038 11.77c-1.405 3.429-.579 7.746-.744 11.65 4.131-.95 9.171-.785 12.104-3.202 3.325-2.726 6.63-7.787 6.63-11.835 0-11.794 5.433-20.945 11.629-30.012 3.181-4.627 7.188-5.867 12.662-3.285 11.918 5.598 15.202 3.842 18.59-9.067.64-2.479 1.342-4.916 2.065-7.395 1.136-4.358 4.131-6.32 8.262-5.184 10.328 2.726 18.838-.372 25.923-7.829 5.721-6.031 11.877-7.374 19.457-3.614 2.19 1.074 5.164.537 7.767.722a29.605 29.605 0 0 0 0-7.766 15.592 15.592 0 0 1 17.577-19.746c7.106 1.074 14.335 2.685 21.358 2.065a19.664 19.664 0 0 0 12.001-6.734c4.441-5.205 7.374-11.711 11.009-17.639 4.131-6.796 4.689-13.282-.682-19.933a39.268 39.268 0 0 1-5.081-9.831 74.849 74.849 0 0 0-16.132-24.787c-6.423-6.506-9.894-16.008-14.334-24.353-2.293-4.275-3.326-9.274-5.949-13.281-1.694-2.582-5.288-5.598-7.87-5.453-2.582.145-6.362 3.388-7.436 6.197a38.476 38.476 0 0 0-2.644 14.872c.228 8.51-2.623 14.892-9.914 19.292a23.682 23.682 0 0 0-11.98 19.787c-.579 7.932-4.545 9.192-11.216 4.483-8.469-6.011-10.824-17.929-6.589-30.446a144.536 144.536 0 0 0 6.196-23.382c.765-4.813-1.322-9.997-1.198-14.996a39.815 39.815 0 0 1 2.789-11.195c.475-1.384 2.458-2.19 3.284-3.553 10.328-17.247 26.501-18.383 43.975-16.214 3.677.454 7.415.578 11.133.785 5.226.289 9.832-.951 12.125-6.197 2.685-6.197 4.131-12.786.186-18.59-1.508-2.065-5.825-3.015-8.944-3.181-2.561-.124-5.184 2.066-7.869 2.396-3.532.31-8.263 1.012-10.555-.847-8.118-6.589-15.368-14.066-15.905-25.715-.496-10.617-2.065-21.193-2.437-31.81-.475-11.959 4.337-21.357 14.128-28.711a161.876 161.876 0 0 0 20.655-18.734c5.743-6.197 4.441-12.393-3.346-15.595a94.691 94.691 0 0 0-23.836-7.105 209.774 209.774 0 0 0-32.036-1.012c-9.419.206-15.223 6.485-15.946 15.863a16 16 0 0 0 0 4.875c4.998 21.357-8.035 33.854-22.948 44.471-9.171 6.423-18.033 13.673-19.499 24.332-1.715 12.847-8.965 22.72-13.426 33.936-3.842 9.646-11.319 15.43-19.871 20.656-19.787 12.083-39.513 24.29-58.847 37.179-12.62 8.262-18.59 20.841-19.209 36.106a35.11 35.11 0 0 1-4.131 14.458c-7.105 13.179-10.328 26.687-7.147 41.6a18.3 18.3 0 0 1-.537 10.183c-5.246 12.972-6.424 26.501-6.341 40.32 0 2.272.124 5.184-1.136 6.671-6.796 8.076-6.527 17.309-4.131 26.439 4.647 17.722 9.811 35.279 14.975 52.857a18.115 18.115 0 0 0 4.338 6.982c12.393 12.868 18.28 28.463 22.266 45.586a315.641 315.641 0 0 0 14.004 42.199c4.276 11.071 15.017 14.335 25.159 18.052a43.974 43.974 0 0 1 12.723 6.693c9.584 7.746 8.799 18.817-1.301 26.129a108.957 108.957 0 0 0-11.299 8.117c-7.291 6.796-6.878 13.736 1.612 18.797 8.902 5.288 13.033 13.384 16.214 22.617 2.541 7.436 4.606 15.43 9.006 21.688 4.131 5.949 10.885 10.328 16.875 14.769 3.842 2.871 8.882 4.234 12.559 7.271 9.439 7.807 15.161 17.474 13.033 30.466a91.701 91.701 0 0 0-.785 6.858 404.428 404.428 0 0 0 136.594 54.613c8.262-3.698 15.822-9.13 24.249-12.394a26.366 26.366 0 0 1 9.419-.805ZM394.338 471.29c-1.569-12.765.868-23.279 9.089-32.078a9.766 9.766 0 0 0 1.466-12.187 46.431 46.431 0 0 1-5.866-26.067c.269-3.222-3.098-7.436-5.907-9.997s-3.078-4.131-1.632-6.981c3.16-6.197 7.043-9.109 14.934-10.617 16.008-3.057 33.048 1.363 48.313-7.147 5.659-3.14 9.15-.289 11.401 6.197 2.417 6.919 5.371 13.632 8.097 20.428a22.87 22.87 0 0 1 1.694 3.821c2.169 11.484 3.367 23.01 8.262 34.061 2.83 6.341-1.818 12.145-8.056 16.008a215.083 215.083 0 0 0-22.204 15.45c-3.594 2.933-5.783 7.56-8.779 11.257a27.805 27.805 0 0 1-6.651 6.961 20.962 20.962 0 0 0-10.678 15.367c-1.198 6.693-4.421 11.01-11.96 11.01-8.654 0-12.186-2.479-15.016-10.328-3.057-8.613-10.452-15.987-6.507-25.158Z"/><path fill="#BDD630" d="M836.424 576.363c-6.796-3.49-13.57-6.981-20.469-10.327a46.474 46.474 0 0 1-20.821-18.879 47.03 47.03 0 0 1-2.706-8.593c13.323 6.403 24.002 13.096 32.305 23.072 5.494 6.589 10.679 13.447 21.606 15.388.144-1.921.371-3.8.578-5.639v-1.239c-1.301-10.328-2.52-20.655-3.925-30.983a389.745 389.745 0 0 0-53.703-151.899c-33.999-56.018-78.325-102.079-134.591-136.14a402.408 402.408 0 0 0-164.726-55.872 395.07 395.07 0 0 0-43.562-2.52c-2.334.362-4.71.362-7.043 0a398.837 398.837 0 0 0-38.791 2.478l-1.715.207a58.375 58.375 0 0 0-8.489 6.197c-3.14 2.726-6.32 4.75-10.637.268 3.573-1.528 6.775-2.706 9.77-4.296l2.643-1.26a432.53 432.53 0 0 0-23.051 3.697c.18 1.37.277 2.75.289 4.131a7.246 7.246 0 0 1-3.201 5.495 72.128 72.128 0 0 1-13.695 4.564 36.158 36.158 0 0 1-7.642.145c-14.81.33-17.805 4.131-14.087 18.714a63.601 63.601 0 0 0-7.415 5.866 7.534 7.534 0 0 0-2.066 5.288c0 .888 3.078 2.292 4.565 2.065 7.973-1.157 15.946-2.479 23.795-4.255 7.849-1.776 15.512-4.234 23.299-6.197 7.787-1.962 16.38-3.263 24.084-6.196 11.98-4.503 23.774-5.432 34.949.867 9.088 5.144 17.722 4.131 26.852 1.157 6.341-2.065 12.662-4.234 19.808-6.63 0 7.518-.392 15.037 9.77 17.577-8.035 3.037-14.727 5.763-21.564 8.097-7.663 2.603-15.078 2.603-21.523-3.346-7.725-7.126-16.255-8.427-26.377-5.06-15.656 5.101-31.458 10.017-48.416 8.055a24.632 24.632 0 0 0-8.943 1.116c-10.493 2.85-15.099 9.212-14.129 20.015a35.117 35.117 0 0 1-11.319 30.032c-1.508 1.446-2.85 3.078-4.337 4.565-15.244 15.389-5.102 29.909 7.766 35.114 17.412 6.941 35.403 12.394 53.27 18.218 6.775 2.169 13.013-.516 17.826-5.411 5.308-5.371 10.906-6.445 17.681-3.326a26.855 26.855 0 0 0 26.604-1.466c6.362-3.884 12.083-5.267 18.755.846 2.706 2.458 8.985 1.488 13.591 1.302 4.606-.186 9.419-1.88 14.128-1.88a13.942 13.942 0 0 0 13.178-7.436c2.066-3.594 3.161-7.704 4.916-11.484a195.596 195.596 0 0 1 9.605-20.098c6.3-10.327 6.197-13.777-2.313-22.535-2.066-2.251-4.131-4.689-6.486-7.374 13.24-2.499 24.786-1.136 35.114 6.672 2.85 2.066 6.734 2.974 10.204 4.255 11.567 4.317 20.077 11.236 22.101 24.373a11.526 11.526 0 0 0 4.358 7.643c5.123 2.974 5.825 7.89 7.808 12.538 3.243 7.621 7.167 14.975 10.865 22.411 1.136 2.272 3.077 4.296 3.573 6.671a8.427 8.427 0 0 1-1.467 6.197c-.578.743-3.738 0-5.349-.702-8.717-4.132-16.958-9.75-26.067-12.621-10.328-3.263-12.683-1.322-17.702 8.262-5.907 11.278-6.858 21.544-.351 34.082 5.99 11.567 8.262 25.55 9.997 38.749 2.066 15.264 6.052 21.833 21.089 25.179a139.692 139.692 0 0 0 22.721 3.057c10.596.578 14.727-4.627 12.538-15.285a69.396 69.396 0 0 0-4.131-12.517c-1.653-3.987-3.842-7.725-6.362-12.662 5.453 2.974 9.852 5.329 14.211 7.787 9.212 5.185 11.773 13.013 5.432 21.399a109.908 109.908 0 0 1-19.416 19.891c-8.737 6.94-11.773 15.719-12.063 26.129a39.239 39.239 0 0 1-8.035 23.919c-6.485 8.365-4.75 14.459 4.317 19.953 3.326 2.066 8.944 5.288 8.655 7.353a31.617 31.617 0 0 1-6.672 15.492c-3.222 3.904-8.696 5.969-13.198 8.799-10.328 6.403-12.538 12.972-8.263 24.167.971 2.602 2.83 4.957 3.429 7.601 3.553 15.615 14.335 19.705 28.67 18.59 2.995-.248 6.031 0 7.477 0-4.813 8.386-10.534 16.854-14.603 26.067a41.162 41.162 0 0 0-2.995 18.238c.433 8.263-1.302 15.43-7.498 20.78-13.86 11.98-19.024 28.05-22.721 45.152a23.126 23.126 0 0 0 3.594 18.59 16.745 16.745 0 0 1 1.714 17.02c-1.921 4.73-2.933 9.811-4.874 14.459a10.038 10.038 0 0 0 2.582 11.98c7.126 7.332 13.818 15.161 21.46 21.915 2.975 2.623 8.015 2.954 12.146 4.131a123.815 123.815 0 0 0 15.223 4.131c5.122.826 10.885 2.066 15.553.599 16.07-5.143 31.83-11.298 47.508-17.33a16.652 16.652 0 0 0 6.506-5.122c11.051-13.674 26.604-18.776 43.376-23.113-1.053 4.771-1.859 9.212-3.036 13.57-1.57 5.825 0 9.708 5.597 12.538 11.836 5.99 13.034 8.902 8.717 21.502-3.305 9.646-7.333 19.044-10.782 28.649a24.415 24.415 0 0 0-1.446 5.742c40.044-42.99 69.595-94.181 88.653-153.572a367.083 367.083 0 0 0 16.958-88.963 46.317 46.317 0 0 1 1.26-6.465V581.92c-3.305-1.901-6.734-3.739-10.266-5.557ZM714.083 447.639c.454-5.721 3.841-9.357 10.554-7.498 5.97 1.653 12.394 2.066 17.95 4.689 10.328 4.834 12.393 13.984 4.978 22.721-8.262 9.811-16.277 19.602-18.59 32.14-2.561-4.586-4.482-9.584-7.684-13.53-9.398-11.69-8.262-25.178-7.208-38.522Zm52.836 91.565a56.019 56.019 0 0 1-13.261 14.955 49.803 49.803 0 0 0-17.474 23.65c-5.639 16.277-21.833 21.833-36.994 12.889a81.415 81.415 0 0 1-8.902-6.692c-6.466-5.143-10.101-4.751-16.07 1.57a3208.797 3208.797 0 0 1-28.381 29.743c-1.57 1.611-3.428 2.913-5.763 4.875 0-7.828.517-14.459-.144-21.068-.785-8.097-.764-15.471 4.709-22.412 1.756-2.23 1.384-7.002.537-10.327-2.272-8.82-1.177-13.86 4.978-19.354 6.156-5.495 12.393-5.164 19.189-1.364 5.061 2.81 10.328 5.123 15.677 7.519a19.336 19.336 0 0 0 5.97 1.797c5.391.496 11.484.971 13.922-5.04 2.437-6.011-2.624-9.914-6.941-12.083-5.886-2.954-12.537-4.358-18.879-6.383-2.974-.95-5.99-1.817-9.666-2.953 13.24-10.142 27.946-8.366 37.468 3.594 4.772 5.99 11.547 7.25 17.847 2.829 4.503-3.181 3.139-7.394.454-10.968-7.105-9.418-7.209-9.336 1.343-18.321 1.817 3.759 2.788 8.448 5.68 10.968 2.52 2.21 7.188 1.942 10.885 2.747l.579-2.065 2.292 8.262c11.877-6.899 14.996-19.024 21.007-28.918 8.241 10.411 8.572 28.463-.062 42.55Z"/><path fill="#BDD630" d="M392.521 975.094c4.378 0 8.84.909 13.157.454 9.708-1.032 17.041-4.895 18.59-16.069 1.094-7.436 5.349-12.642 13.756-13.633a28.796 28.796 0 0 0 10.328-3.945c6.899-3.925 9.605-11.691 4.854-17.805a162.004 162.004 0 0 0-21.709-22.349c-4.337-3.78-10.018-1.529-14.169 1.735-5.722 4.482-10.844 3.883-17.392 1.405-12.063-4.545-21.502-11.815-30.756-20.656a157.586 157.586 0 0 0-34.804-25.282 149.803 149.803 0 0 1-39.018-30.983 93.073 93.073 0 0 0-20.883-15.677c-7.332-4.359-15.574-7.188-23.34-10.886-12.393-5.907-24.167-12.558-33.338-23.444a43.11 43.11 0 0 0-39.245-15.47c-11.402 1.239-19.705-4.317-27.43-11.113a13.134 13.134 0 0 1-3.119-8.944c-.31-10.472.309-20.965 0-31.416a29.144 29.144 0 0 0-3.099-10.06 26.085 26.085 0 0 0-3.8-4.978c-9.378-11.814-9.419-11.835.124-23.567 3.821-4.73 5.763-9.874 2.189-15.327-3.573-5.453-9.274-5.948-15.45-3.965-13.447 4.317-19.746-.93-18.321-14.666a94.105 94.105 0 0 0-.145-11.815c-.103-3.47-1.157-7.188-.289-10.327 2.541-9.336 6.3-18.59 16.524-21.668 8.531-2.623 23.589 4.338 28.629 12.249 5.039 7.911 9.563 15.967 14.809 23.65a22.517 22.517 0 0 1 2.211 22.804c-1.384 3.408-.558 7.746-.744 11.649 4.131-.97 9.192-.784 12.125-3.201 3.325-2.747 6.63-7.808 6.63-11.856 0-11.774 5.412-20.945 11.629-29.992 3.181-4.647 7.167-5.887 12.641-3.305 11.918 5.619 15.202 3.842 18.59-9.067.619-2.458 1.342-4.916 2.065-7.374 1.157-4.379 4.131-6.342 8.262-5.185 10.328 2.727 18.838-.392 25.923-7.849 5.721-6.011 11.897-7.353 19.478-3.615 2.169 1.095 5.143.538 7.766.744.32-2.586.32-5.201 0-7.787a15.576 15.576 0 0 1 17.557-19.726c7.106 1.054 14.335 2.665 21.379 2.169a19.702 19.702 0 0 0 11.98-6.734c4.461-5.226 7.394-11.732 11.03-17.639 4.131-6.817 4.668-13.282-.682-19.933a39.644 39.644 0 0 1-5.102-9.832 74.802 74.802 0 0 0-16.111-24.786c-6.424-6.507-9.894-16.008-14.355-24.373-2.273-4.255-3.326-9.254-5.929-13.261-1.693-2.582-5.287-5.598-7.89-5.453-2.602.144-6.341 3.387-7.436 6.196a38.133 38.133 0 0 0-2.623 14.872c.207 8.531-2.623 14.913-9.915 19.313a23.614 23.614 0 0 0-12.083 19.912c-.578 7.931-4.565 9.212-11.216 4.482-8.489-6.011-10.823-17.908-6.61-30.425a144.884 144.884 0 0 0 6.197-23.403c.764-4.792-1.343-9.997-1.198-14.975a38.958 38.958 0 0 1 2.727-11.278c.454-1.404 2.458-2.189 3.263-3.552 10.328-17.248 26.501-18.384 43.975-16.236 3.698.455 7.416.599 11.134.806 5.246.289 9.831-.95 12.145-6.197 2.685-6.196 4.131-12.785.165-18.589-1.487-2.066-5.825-3.016-8.923-3.181-2.582-.145-5.205 2.065-7.89 2.396-3.532.31-8.262.991-10.535-.868-8.138-6.568-15.388-14.045-15.925-25.716-.496-10.617-2.065-21.192-2.416-31.809-.496-11.939 4.316-21.337 14.107-28.711a159.119 159.119 0 0 0 20.532-18.755c5.742-6.196 4.44-12.393-3.326-15.574a94.05 94.05 0 0 0-23.857-7.147 212.372 212.372 0 0 0-32.036-1.033c-9.399.228-15.223 6.486-15.946 15.884a16.004 16.004 0 0 0 .103 4.875c4.978 21.337-8.035 33.854-22.969 44.45-9.129 6.507-17.97 13.736-19.374 24.394-1.715 12.869-8.965 22.721-13.447 33.937-3.821 9.667-11.319 15.43-19.85 20.655-19.788 12.104-39.534 24.312-58.847 37.18-12.641 8.262-18.59 20.821-19.23 36.106a34.779 34.779 0 0 1-4.131 14.458c-7.105 13.158-10.328 26.666-7.147 41.579.8 3.383.613 6.924-.537 10.204-5.35 12.992-6.527 26.522-6.424 40.34 0 2.251.104 5.164-1.156 6.672-6.796 8.076-6.527 17.309-4.131 26.439 4.647 17.722 9.873 35.258 15.078 52.836a18.071 18.071 0 0 0 4.358 7.002c12.29 12.868 18.28 28.484 22.267 45.607a317.464 317.464 0 0 0 13.983 42.199c4.297 11.051 15.037 14.335 25.179 18.053a44.732 44.732 0 0 1 12.724 6.63c9.563 7.766 8.799 18.817-1.322 26.129a114.319 114.319 0 0 0-11.278 8.138c-7.312 6.796-6.878 13.736 1.591 18.776 8.902 5.308 13.054 13.405 16.214 22.721 2.561 7.415 4.627 15.409 9.026 21.688 4.132 5.949 10.886 10.328 16.876 14.748 3.842 2.892 8.861 4.234 12.538 7.27 9.439 7.808 15.161 17.475 13.054 30.488-.372 2.231-.599 4.523-.806 6.837a403.762 403.762 0 0 0 52.196 27.864 399.381 399.381 0 0 0 84.398 26.852c8.262-3.698 15.843-9.13 24.27-12.394a26.862 26.862 0 0 1 9.378-.991ZM398.222 459.681c-1.57-12.785.867-23.278 9.088-32.077a9.872 9.872 0 0 0 1.467-12.208 46.206 46.206 0 0 1-5.867-26.067c.248-3.201-3.119-7.415-5.907-9.997s-3.098-4.131-1.632-6.981c3.14-6.197 7.023-9.089 14.913-10.597 16.029-3.077 33.049 1.343 48.334-7.146 5.639-3.14 9.15-.29 11.402 6.196 2.416 6.899 5.349 13.633 8.096 20.428a21.975 21.975 0 0 1 1.694 3.801c2.066 11.484 3.367 23.031 8.262 34.061 2.83 6.361-1.797 12.145-8.035 16.007a214.712 214.712 0 0 0-22.204 15.409c-3.594 2.913-5.784 7.54-8.779 11.258a27.279 27.279 0 0 1-6.63 6.94 21.04 21.04 0 0 0-10.679 15.388c-1.218 6.672-4.42 10.989-11.98 10.989-8.634 0-12.166-2.458-14.996-10.328-3.119-8.551-10.493-15.925-6.547-25.076Z"/><path fill="url(#aI)" d="M843.881 590.368a382.293 382.293 0 0 1-105.011 263.2 382.294 382.294 0 0 1-257.366 118.593c-6.61.33-13.24.516-19.933.516-211.139 0-382.31-171.17-382.31-382.309 0-211.139 171.171-382.31 382.31-382.31s382.31 171.171 382.31 382.31Z" style="mix-blend-mode:multiply"/></g><defs><linearGradient id="b" x1="174.559" x2="147.232" y1="367.769" y2="343.027" gradientUnits="userSpaceOnUse"><stop stop-color="#64858D"/><stop offset=".35" stop-color="#5C7D85"/><stop offset=".9" stop-color="#47686E"/><stop offset="1" stop-color="#426369"/></linearGradient><linearGradient id="c" x1="198.103" x2="160.757" y1="334.663" y2="339.857" gradientUnits="userSpaceOnUse"><stop stop-color="#EC9F68"/><stop offset=".26" stop-color="#E89B63"/><stop offset=".56" stop-color="#DB8E56"/><stop offset=".87" stop-color="#C7783F"/><stop offset="1" stop-color="#BC6D33"/></linearGradient><linearGradient id="d" x1="181.449" x2="139.569" y1="344.59" y2="346.669" gradientUnits="userSpaceOnUse"><stop stop-color="#FAAF40"/><stop offset=".36" stop-color="#F9A838"/><stop offset=".94" stop-color="#F69521"/><stop offset="1" stop-color="#F6921E"/></linearGradient><linearGradient id="e" x1="80.655" x2="82.139" y1="378.756" y2="341.063" gradientUnits="userSpaceOnUse"><stop stop-color="#EC9F68"/><stop offset=".26" stop-color="#E89B63"/><stop offset=".56" stop-color="#DB8E56"/><stop offset=".87" stop-color="#C7783F"/><stop offset="1" stop-color="#BC6D33"/></linearGradient><linearGradient id="f" x1="88.9" x2="86.821" y1="361.214" y2="319.334" gradientUnits="userSpaceOnUse"><stop stop-color="#FAAF40"/><stop offset=".36" stop-color="#F9A838"/><stop offset=".94" stop-color="#F69521"/><stop offset="1" stop-color="#F6921E"/></linearGradient><linearGradient id="g" x1="78.799" x2="185.636" y1="318.466" y2="318.466" gradientUnits="userSpaceOnUse"><stop stop-color="#CB2B28"/><stop offset="1" stop-color="#EE4036"/></linearGradient><linearGradient id="h" x1="102.066" x2="81.998" y1="301.371" y2="283.201" gradientUnits="userSpaceOnUse"><stop stop-color="#FAAF40"/><stop offset=".36" stop-color="#F9A838"/><stop offset=".94" stop-color="#F69521"/><stop offset="1" stop-color="#F6921E"/></linearGradient><linearGradient id="i" x1="98.72" x2="87.373" y1="298.568" y2="288.294" gradientUnits="userSpaceOnUse"><stop stop-color="#E58F54"/><stop offset=".05" stop-color="#E28D52"/><stop offset=".65" stop-color="#C6763B"/><stop offset="1" stop-color="#BC6D33"/></linearGradient><linearGradient id="j" x1="17.445" x2="98.236" y1="204.919" y2="278.067" gradientUnits="userSpaceOnUse"><stop stop-color="#773C19"/><stop offset="1" stop-color="#5B2B13"/></linearGradient><linearGradient id="k" x1="73.043" x2="21.438" y1="275.659" y2="225.993" gradientUnits="userSpaceOnUse"><stop stop-color="#EC9F68"/><stop offset=".51" stop-color="#EA9D66"/><stop offset=".69" stop-color="#E4975F"/><stop offset=".82" stop-color="#D98C54"/><stop offset=".93" stop-color="#CA7C43"/><stop offset="1" stop-color="#BC6D33"/></linearGradient><linearGradient id="n" x1="60.371" x2="7.209" y1="318.242" y2="270.109" gradientUnits="userSpaceOnUse"><stop stop-color="#773C19"/><stop offset="1" stop-color="#5B2B13"/></linearGradient><linearGradient id="o" x1="111.933" x2="63.559" y1="255.201" y2="211.402" gradientUnits="userSpaceOnUse"><stop stop-color="#773C19"/><stop offset="1" stop-color="#5B2B13"/></linearGradient><linearGradient id="p" x1="14.228" x2="47.105" y1="221.022" y2="250.788" gradientUnits="userSpaceOnUse"><stop stop-color="#773C19"/><stop offset="1" stop-color="#5B2B13"/></linearGradient><linearGradient id="q" x1="79.1" x2="74.787" y1="280.435" y2="276.389" gradientUnits="userSpaceOnUse"><stop stop-color="#CB2B28"/><stop offset=".26" stop-color="#D8332D"/><stop offset=".67" stop-color="#E83D34"/><stop offset="1" stop-color="#EE4036"/></linearGradient><linearGradient id="r" x1="745.531" x2="771.288" y1="353.67" y2="328.986" gradientUnits="userSpaceOnUse"><stop stop-color="#CB2B28"/><stop offset="1" stop-color="#EE4036"/></linearGradient><linearGradient id="s" x1="752.536" x2="805.15" y1="253.559" y2="288.933" gradientUnits="userSpaceOnUse"><stop stop-color="#F8A86D"/><stop offset=".28" stop-color="#F5A56A"/><stop offset=".53" stop-color="#EA9A5F"/><stop offset=".75" stop-color="#D8894E"/><stop offset=".97" stop-color="#BF7036"/><stop offset="1" stop-color="#BC6D33"/></linearGradient><linearGradient id="t" x1="840.641" x2="835.786" y1="304.721" y2="232.775" gradientUnits="userSpaceOnUse"><stop stop-color="#F8A86D"/><stop offset=".24" stop-color="#F3A368"/><stop offset=".52" stop-color="#E6965B"/><stop offset=".81" stop-color="#CF8045"/><stop offset="1" stop-color="#BC6D33"/></linearGradient><linearGradient id="u" x1="741.99" x2="830.135" y1="358.572" y2="274.101" gradientUnits="userSpaceOnUse"><stop stop-color="#CB2B28"/><stop offset="1" stop-color="#EE4036"/></linearGradient><linearGradient id="v" x1="817.512" x2="828.19" y1="285.211" y2="274.978" gradientUnits="userSpaceOnUse"><stop stop-color="#E58F54"/><stop offset=".05" stop-color="#E28D52"/><stop offset=".65" stop-color="#C6763B"/><stop offset="1" stop-color="#BC6D33"/></linearGradient><linearGradient id="w" x1="901.149" x2="945.645" y1="277.261" y2="240.277" gradientUnits="userSpaceOnUse"><stop offset=".01" stop-color="#220D00"/><stop offset=".61" stop-color="#372112"/><stop offset="1" stop-color="#3F2818"/></linearGradient><linearGradient id="x" x1="922.072" x2="930.839" y1="252.157" y2="255.729" gradientUnits="userSpaceOnUse"><stop stop-color="#CB2B28"/><stop offset=".26" stop-color="#D8332D"/><stop offset=".67" stop-color="#E83D34"/><stop offset="1" stop-color="#EE4036"/></linearGradient><linearGradient id="y" x1="827.837" x2="869.444" y1="208.002" y2="168.129" gradientUnits="userSpaceOnUse"><stop offset=".01" stop-color="#220D00"/><stop offset=".61" stop-color="#372112"/><stop offset="1" stop-color="#3F2818"/></linearGradient><linearGradient id="z" x1="855.02" x2="852.487" y1="190.105" y2="181.043" gradientUnits="userSpaceOnUse"><stop stop-color="#CB2B28"/><stop offset=".26" stop-color="#D8332D"/><stop offset=".67" stop-color="#E83D34"/><stop offset="1" stop-color="#EE4036"/></linearGradient><linearGradient id="A" x1="817.444" x2="900.779" y1="288.38" y2="208.517" gradientUnits="userSpaceOnUse"><stop offset=".01" stop-color="#220D00"/><stop offset=".61" stop-color="#372112"/><stop offset="1" stop-color="#3F2818"/></linearGradient><linearGradient id="B" x1="841.371" x2="892.851" y1="261.998" y2="215.593" gradientUnits="userSpaceOnUse"><stop stop-color="#F8A86D"/><stop offset=".5" stop-color="#F6A66B"/><stop offset=".68" stop-color="#EF9F65"/><stop offset=".8" stop-color="#E49459"/><stop offset=".91" stop-color="#D38349"/><stop offset=".99" stop-color="#BD6E34"/><stop offset="1" stop-color="#BC6D33"/></linearGradient><linearGradient id="C" x1="809.572" x2="839.806" y1="234.327" y2="205.353" gradientUnits="userSpaceOnUse"><stop offset=".01" stop-color="#220D00"/><stop offset=".61" stop-color="#372112"/><stop offset="1" stop-color="#3F2818"/></linearGradient><linearGradient id="D" x1="870.103" x2="900.352" y1="273.326" y2="244.338" gradientUnits="userSpaceOnUse"><stop offset=".01" stop-color="#220D00"/><stop offset=".61" stop-color="#372112"/><stop offset="1" stop-color="#3F2818"/></linearGradient><linearGradient id="G" x1="857.436" x2="899.996" y1="248.546" y2="207.76" gradientUnits="userSpaceOnUse"><stop offset=".01" stop-color="#220D00"/><stop offset=".61" stop-color="#372112"/><stop offset="1" stop-color="#3F2818"/></linearGradient><linearGradient id="H" x1="843.204" x2="851.976" y1="235.724" y2="227.317" gradientUnits="userSpaceOnUse"><stop offset=".01" stop-color="#220D00"/><stop offset="1" stop-color="#3F2818"/></linearGradient><linearGradient id="I" x1="868.328" x2="877.1" y1="262.364" y2="253.957" gradientUnits="userSpaceOnUse"><stop offset=".01" stop-color="#220D00"/><stop offset="1" stop-color="#3F2818"/></linearGradient><linearGradient id="J" x1="462.008" x2="466.855" y1="120.158" y2="-31.555" gradientUnits="userSpaceOnUse"><stop offset=".01" stop-color="#220D00"/><stop offset="1" stop-color="#3F2818"/></linearGradient><linearGradient id="K" x1="457.571" x2="458.751" y1="226.15" y2="189.22" gradientUnits="userSpaceOnUse"><stop stop-color="#53B3B5"/><stop offset=".4" stop-color="#4BACAD"/><stop offset="1" stop-color="#359998"/></linearGradient><linearGradient id="L" x1="539.324" x2="511.063" y1="142.283" y2="117.173" gradientUnits="userSpaceOnUse"><stop stop-color="#EC9F68"/><stop offset=".26" stop-color="#E89B63"/><stop offset=".56" stop-color="#DB8E56"/><stop offset=".87" stop-color="#C7783F"/><stop offset="1" stop-color="#BC6D33"/></linearGradient><linearGradient id="M" x1="494.695" x2="555.961" y1="114.726" y2="148.375" gradientUnits="userSpaceOnUse"><stop stop-color="#CB2B28"/><stop offset="1" stop-color="#EE4036"/></linearGradient><linearGradient id="N" x1="388.518" x2="418.245" y1="160.768" y2="137.464" gradientUnits="userSpaceOnUse"><stop stop-color="#EC9F68"/><stop offset=".26" stop-color="#E89B63"/><stop offset=".56" stop-color="#DB8E56"/><stop offset=".87" stop-color="#C7783F"/><stop offset="1" stop-color="#BC6D33"/></linearGradient><linearGradient id="O" x1="434.726" x2="371.523" y1="136.036" y2="165.794" gradientUnits="userSpaceOnUse"><stop stop-color="#CB2B28"/><stop offset="1" stop-color="#EE4036"/></linearGradient><linearGradient id="P" x1="458.508" x2="462.546" y1="232.338" y2="105.967" gradientUnits="userSpaceOnUse"><stop stop-color="#CB2B28"/><stop offset="1" stop-color="#EE4036"/></linearGradient><linearGradient id="Q" x1="461.234" x2="461.723" y1="123.348" y2="108.043" gradientUnits="userSpaceOnUse"><stop stop-color="#E58F54"/><stop offset=".05" stop-color="#E28D52"/><stop offset=".65" stop-color="#C6763B"/><stop offset="1" stop-color="#BC6D33"/></linearGradient><linearGradient id="R" x1="462.083" x2="466.556" y1="88.887" y2="17.279" gradientUnits="userSpaceOnUse"><stop stop-color="#EC9F68"/><stop offset=".51" stop-color="#EA9D66"/><stop offset=".69" stop-color="#E4975F"/><stop offset=".82" stop-color="#D98C54"/><stop offset=".93" stop-color="#CA7C43"/><stop offset="1" stop-color="#BC6D33"/></linearGradient><linearGradient id="S" x1="419.804" x2="421.777" y1="92.601" y2="30.875" gradientUnits="userSpaceOnUse"><stop offset=".01" stop-color="#220D00"/><stop offset="1" stop-color="#3F2818"/></linearGradient><linearGradient id="T" x1="529.631" x2="533.336" y1="57.818" y2="-3.939" gradientUnits="userSpaceOnUse"><stop offset=".01" stop-color="#220D00"/><stop offset="1" stop-color="#3F2818"/></linearGradient><linearGradient id="U" x1="463.894" x2="464.953" y1="71.669" y2="38.517" gradientUnits="userSpaceOnUse"><stop offset=".01" stop-color="#220D00"/><stop offset="1" stop-color="#3F2818"/></linearGradient><linearGradient id="X" x1="482.286" x2="482.687" y1="69.63" y2="57.075" gradientUnits="userSpaceOnUse"><stop offset=".01" stop-color="#220D00"/><stop offset="1" stop-color="#3F2818"/></linearGradient><linearGradient id="Y" x1="444.398" x2="444.8" y1="68.125" y2="55.57" gradientUnits="userSpaceOnUse"><stop offset=".01" stop-color="#220D00"/><stop offset="1" stop-color="#3F2818"/></linearGradient><linearGradient id="Z" x1="462.361" x2="462.655" y1="96.63" y2="90.713" gradientUnits="userSpaceOnUse"><stop stop-color="#CB2B28"/><stop offset=".26" stop-color="#D8332D"/><stop offset=".67" stop-color="#E83D34"/><stop offset="1" stop-color="#EE4036"/></linearGradient><linearGradient id="aa" x1="308.549" x2="295.997" y1="258.087" y2="232.588" gradientUnits="userSpaceOnUse"><stop stop-color="#404041"/><stop offset=".77" stop-color="#383839"/><stop offset="1" stop-color="#353435"/></linearGradient><linearGradient id="ab" x1="400.896" x2="364.14" y1="203.877" y2="194.815" gradientUnits="userSpaceOnUse"><stop stop-color="#EC9F68"/><stop offset=".26" stop-color="#E89B63"/><stop offset=".56" stop-color="#DB8E56"/><stop offset=".87" stop-color="#C7783F"/><stop offset="1" stop-color="#BC6D33"/></linearGradient><linearGradient id="ac" x1="332.348" x2="282.077" y1="172.831" y2="157.939" gradientUnits="userSpaceOnUse"><stop stop-color="#D3E06C"/><stop offset=".24" stop-color="#CBD868"/><stop offset=".61" stop-color="#B4C15D"/><stop offset="1" stop-color="#96A24F"/></linearGradient><linearGradient id="ad" x1="216.52" x2="231.803" y1="232.566" y2="198.023" gradientUnits="userSpaceOnUse"><stop stop-color="#EC9F68"/><stop offset=".26" stop-color="#E89B63"/><stop offset=".56" stop-color="#DB8E56"/><stop offset=".87" stop-color="#C7783F"/><stop offset="1" stop-color="#BC6D33"/></linearGradient><linearGradient id="ae" x1="228.218" x2="247.939" y1="221.703" y2="175.868" gradientUnits="userSpaceOnUse"><stop stop-color="#D3E06C"/><stop offset=".24" stop-color="#CBD868"/><stop offset=".61" stop-color="#B4C15D"/><stop offset="1" stop-color="#96A24F"/></linearGradient><linearGradient id="af" x1="299.343" x2="257.353" y1="236.818" y2="151.52" gradientUnits="userSpaceOnUse"><stop stop-color="#D3E06C"/><stop offset=".49" stop-color="#D1DE6B"/><stop offset=".67" stop-color="#CAD768"/><stop offset=".8" stop-color="#BFCB62"/><stop offset=".9" stop-color="#AEBA5A"/><stop offset=".99" stop-color="#99A550"/><stop offset="1" stop-color="#96A24F"/></linearGradient><linearGradient id="ag" x1="262.956" x2="256.183" y1="164.566" y2="150.808" gradientUnits="userSpaceOnUse"><stop stop-color="#E58F54"/><stop offset=".05" stop-color="#E28D52"/><stop offset=".65" stop-color="#C6763B"/><stop offset="1" stop-color="#BC6D33"/></linearGradient><linearGradient id="ah" x1="253.26" x2="204.87" y1="135.709" y2="36.73" gradientUnits="userSpaceOnUse"><stop offset=".01" stop-color="#220D00"/><stop offset="1" stop-color="#3F2818"/></linearGradient><linearGradient id="ai" x1="248.325" x2="212.448" y1="133.37" y2="60.492" gradientUnits="userSpaceOnUse"><stop stop-color="#EC9F68"/><stop offset=".51" stop-color="#EA9D66"/><stop offset=".69" stop-color="#E4975F"/><stop offset=".82" stop-color="#D98C54"/><stop offset=".93" stop-color="#CA7C43"/><stop offset="1" stop-color="#BC6D33"/></linearGradient><linearGradient id="al" x1="231.76" x2="206.182" y1="98.819" y2="46.86" gradientUnits="userSpaceOnUse"><stop offset=".01" stop-color="#220D00"/><stop offset="1" stop-color="#3F2818"/></linearGradient><linearGradient id="am" x1="222.212" x2="216.655" y1="123.701" y2="112.413" gradientUnits="userSpaceOnUse"><stop offset=".01" stop-color="#220D00"/><stop offset="1" stop-color="#3F2818"/></linearGradient><linearGradient id="an" x1="256.359" x2="250.802" y1="107.219" y2="95.93" gradientUnits="userSpaceOnUse"><stop offset=".01" stop-color="#220D00"/><stop offset="1" stop-color="#3F2818"/></linearGradient><linearGradient id="ao" x1="251.381" x2="248.859" y1="140.435" y2="135.074" gradientUnits="userSpaceOnUse"><stop stop-color="#CB2B28"/><stop offset=".26" stop-color="#D8332D"/><stop offset=".67" stop-color="#E83D34"/><stop offset="1" stop-color="#EE4036"/></linearGradient><linearGradient id="ap" x1="575.545" x2="612.264" y1="167.877" y2="158.951" gradientUnits="userSpaceOnUse"><stop stop-color="#EC9F68"/><stop offset=".26" stop-color="#E89B63"/><stop offset=".56" stop-color="#DB8E56"/><stop offset=".87" stop-color="#C7783F"/><stop offset="1" stop-color="#BC6D33"/></linearGradient><linearGradient id="aq" x1="579.023" x2="639.044" y1="174.071" y2="153.073" gradientUnits="userSpaceOnUse"><stop stop-color="#FAAF40"/><stop offset=".36" stop-color="#F9A838"/><stop offset=".94" stop-color="#F69521"/><stop offset="1" stop-color="#F6921E"/></linearGradient><linearGradient id="ar" x1="763.346" x2="747.922" y1="193.025" y2="158.454" gradientUnits="userSpaceOnUse"><stop stop-color="#EC9F68"/><stop offset=".26" stop-color="#E89B63"/><stop offset=".56" stop-color="#DB8E56"/><stop offset=".87" stop-color="#C7783F"/><stop offset="1" stop-color="#BC6D33"/></linearGradient><linearGradient id="as" x1="693.667" x2="682.491" y1="232.803" y2="176.339" gradientUnits="userSpaceOnUse"><stop stop-color="#FAAF40"/><stop offset=".36" stop-color="#F9A838"/><stop offset=".94" stop-color="#F69521"/><stop offset="1" stop-color="#F6921E"/></linearGradient><linearGradient id="at" x1="608.974" x2="621.196" y1="261.311" y2="236.516" gradientUnits="userSpaceOnUse"><stop stop-color="#404041"/><stop offset=".77" stop-color="#383839"/><stop offset="1" stop-color="#353435"/></linearGradient><linearGradient id="au" x1="616.238" x2="658.901" y1="251.541" y2="153.736" gradientUnits="userSpaceOnUse"><stop stop-color="#FAAF40"/><stop offset=".36" stop-color="#F9A838"/><stop offset=".94" stop-color="#F69521"/><stop offset="1" stop-color="#F6921E"/></linearGradient><linearGradient id="av" x1="657.776" x2="664.556" y1="163.258" y2="149.504" gradientUnits="userSpaceOnUse"><stop stop-color="#E58F54"/><stop offset=".05" stop-color="#E28D52"/><stop offset=".65" stop-color="#C6763B"/><stop offset="1" stop-color="#BC6D33"/></linearGradient><linearGradient id="aw" x1="707.412" x2="711.861" y1="59.996" y2="50.971" gradientUnits="userSpaceOnUse"><stop offset=".01" stop-color="#220D00"/><stop offset=".61" stop-color="#372112"/><stop offset="1" stop-color="#3F2818"/></linearGradient><linearGradient id="ax" x1="682.944" x2="710.723" y1="115.336" y2="58.982" gradientUnits="userSpaceOnUse"><stop stop-color="#CB2B28"/><stop offset="1" stop-color="#EE4036"/></linearGradient><linearGradient id="ay" x1="673.591" x2="709.515" y1="132.647" y2="59.768" gradientUnits="userSpaceOnUse"><stop stop-color="#EC9F68"/><stop offset=".51" stop-color="#EA9D66"/><stop offset=".69" stop-color="#E4975F"/><stop offset=".82" stop-color="#D98C54"/><stop offset=".93" stop-color="#CA7C43"/><stop offset="1" stop-color="#BC6D33"/></linearGradient><linearGradient id="aB" x1="710.06" x2="692.432" y1="58.14" y2="93.901" gradientUnits="userSpaceOnUse"><stop stop-color="#fff"/><stop offset=".24" stop-color="#F7FCFC"/><stop offset=".63" stop-color="#E0F2F5"/><stop offset="1" stop-color="#C4E7EC"/></linearGradient><linearGradient id="aC" x1="686.939" x2="695.13" y1="104.191" y2="87.573" gradientUnits="userSpaceOnUse"><stop stop-color="#262261"/><stop offset=".29" stop-color="#272669"/><stop offset=".75" stop-color="#293180"/><stop offset="1" stop-color="#2B388F"/></linearGradient><linearGradient id="aD" x1="699.221" x2="704.784" y1="123.079" y2="111.793" gradientUnits="userSpaceOnUse"><stop offset=".01" stop-color="#220D00"/><stop offset="1" stop-color="#3F2818"/></linearGradient><linearGradient id="aE" x1="665.324" x2="670.887" y1="106.042" y2="94.756" gradientUnits="userSpaceOnUse"><stop offset=".01" stop-color="#220D00"/><stop offset="1" stop-color="#3F2818"/></linearGradient><linearGradient id="aF" x1="669.853" x2="672.557" y1="139.375" y2="134.127" gradientUnits="userSpaceOnUse"><stop stop-color="#CB2B28"/><stop offset=".26" stop-color="#D8332D"/><stop offset=".67" stop-color="#E83D34"/><stop offset="1" stop-color="#EE4036"/></linearGradient><radialGradient id="l" cx="0" cy="0" r="1" gradientTransform="rotate(-48.02 303.506 28.001) scale(16.5107 9.0809)" gradientUnits="userSpaceOnUse"><stop stop-color="#F05A28" stop-opacity=".8"/><stop offset=".1" stop-color="#F05A28" stop-opacity=".78"/><stop offset=".2" stop-color="#F05A28" stop-opacity=".72"/><stop offset=".29" stop-color="#F05A28" stop-opacity=".65"/><stop offset=".39" stop-color="#F05A28" stop-opacity=".49"/><stop offset=".56" stop-color="#F05A28" stop-opacity=".23"/><stop offset=".68" stop-color="#F05A28" stop-opacity=".06"/><stop offset=".75" stop-color="#F05A28" stop-opacity="0"/></radialGradient><radialGradient id="m" cx="0" cy="0" r="1" gradientTransform="rotate(-48.02 330.068 87.632) scale(16.5107 9.0809)" gradientUnits="userSpaceOnUse"><stop stop-color="#F05A28" stop-opacity=".8"/><stop offset=".1" stop-color="#F05A28" stop-opacity=".78"/><stop offset=".2" stop-color="#F05A28" stop-opacity=".72"/><stop offset=".29" stop-color="#F05A28" stop-opacity=".65"/><stop offset=".39" stop-color="#F05A28" stop-opacity=".49"/><stop offset=".56" stop-color="#F05A28" stop-opacity=".23"/><stop offset=".68" stop-color="#F05A28" stop-opacity=".06"/><stop offset=".75" stop-color="#F05A28" stop-opacity="0"/></radialGradient><radialGradient id="E" cx="0" cy="0" r="1" gradientTransform="rotate(46.39 125.562 1146.084) scale(16.0066 8.80362)" gradientUnits="userSpaceOnUse"><stop stop-color="#F05A28" stop-opacity=".8"/><stop offset=".1" stop-color="#F05A28" stop-opacity=".78"/><stop offset=".2" stop-color="#F05A28" stop-opacity=".72"/><stop offset=".29" stop-color="#F05A28" stop-opacity=".65"/><stop offset=".39" stop-color="#F05A28" stop-opacity=".49"/><stop offset=".56" stop-color="#F05A28" stop-opacity=".23"/><stop offset=".68" stop-color="#F05A28" stop-opacity=".06"/><stop offset=".75" stop-color="#F05A28" stop-opacity="0"/></radialGradient><radialGradient id="F" cx="0" cy="0" r="1" gradientTransform="rotate(46.39 151.294 1086.032) scale(16.0066 8.80362)" gradientUnits="userSpaceOnUse"><stop stop-color="#F05A28" stop-opacity=".8"/><stop offset=".1" stop-color="#F05A28" stop-opacity=".78"/><stop offset=".2" stop-color="#F05A28" stop-opacity=".72"/><stop offset=".29" stop-color="#F05A28" stop-opacity=".65"/><stop offset=".39" stop-color="#F05A28" stop-opacity=".49"/><stop offset=".56" stop-color="#F05A28" stop-opacity=".23"/><stop offset=".68" stop-color="#F05A28" stop-opacity=".06"/><stop offset=".75" stop-color="#F05A28" stop-opacity="0"/></radialGradient><radialGradient id="V" cx="0" cy="0" r="1" gradientTransform="matrix(16.51067 .49532 -.27248 9.08263 490.018 71.956)" gradientUnits="userSpaceOnUse"><stop stop-color="#F05A28" stop-opacity=".8"/><stop offset=".1" stop-color="#F05A28" stop-opacity=".78"/><stop offset=".2" stop-color="#F05A28" stop-opacity=".72"/><stop offset=".29" stop-color="#F05A28" stop-opacity=".65"/><stop offset=".39" stop-color="#F05A28" stop-opacity=".49"/><stop offset=".56" stop-color="#F05A28" stop-opacity=".23"/><stop offset=".68" stop-color="#F05A28" stop-opacity=".06"/><stop offset=".75" stop-color="#F05A28" stop-opacity="0"/></radialGradient><radialGradient id="W" cx="0" cy="0" r="1" gradientTransform="matrix(16.51077 .49532 -.27248 9.08263 436.893 70.362)" gradientUnits="userSpaceOnUse"><stop stop-color="#F05A28" stop-opacity=".8"/><stop offset=".1" stop-color="#F05A28" stop-opacity=".78"/><stop offset=".2" stop-color="#F05A28" stop-opacity=".72"/><stop offset=".29" stop-color="#F05A28" stop-opacity=".65"/><stop offset=".39" stop-color="#F05A28" stop-opacity=".49"/><stop offset=".56" stop-color="#F05A28" stop-opacity=".23"/><stop offset=".68" stop-color="#F05A28" stop-opacity=".06"/><stop offset=".75" stop-color="#F05A28" stop-opacity="0"/></radialGradient><radialGradient id="aj" cx="0" cy="0" r="1" gradientTransform="rotate(-26.21 360.215 -521.32) scale(16.5107 9.0809)" gradientUnits="userSpaceOnUse"><stop stop-color="#F05A28" stop-opacity=".8"/><stop offset=".1" stop-color="#F05A28" stop-opacity=".78"/><stop offset=".2" stop-color="#F05A28" stop-opacity=".72"/><stop offset=".29" stop-color="#F05A28" stop-opacity=".65"/><stop offset=".39" stop-color="#F05A28" stop-opacity=".49"/><stop offset=".56" stop-color="#F05A28" stop-opacity=".23"/><stop offset=".68" stop-color="#F05A28" stop-opacity=".06"/><stop offset=".75" stop-color="#F05A28" stop-opacity="0"/></radialGradient><radialGradient id="ak" cx="0" cy="0" r="1" gradientTransform="rotate(-26.21 388.496 -397.087) scale(16.5107 9.0809)" gradientUnits="userSpaceOnUse"><stop stop-color="#F05A28" stop-opacity=".8"/><stop offset=".1" stop-color="#F05A28" stop-opacity=".78"/><stop offset=".2" stop-color="#F05A28" stop-opacity=".72"/><stop offset=".29" stop-color="#F05A28" stop-opacity=".65"/><stop offset=".39" stop-color="#F05A28" stop-opacity=".49"/><stop offset=".56" stop-color="#F05A28" stop-opacity=".23"/><stop offset=".68" stop-color="#F05A28" stop-opacity=".06"/><stop offset=".75" stop-color="#F05A28" stop-opacity="0"/></radialGradient><radialGradient id="az" cx="0" cy="0" r="1" gradientTransform="rotate(26.24 72.65 1582.387) scale(16.5107 9.0809)" gradientUnits="userSpaceOnUse"><stop stop-color="#F05A28" stop-opacity=".8"/><stop offset=".1" stop-color="#F05A28" stop-opacity=".78"/><stop offset=".2" stop-color="#F05A28" stop-opacity=".72"/><stop offset=".29" stop-color="#F05A28" stop-opacity=".65"/><stop offset=".39" stop-color="#F05A28" stop-opacity=".49"/><stop offset=".56" stop-color="#F05A28" stop-opacity=".23"/><stop offset=".68" stop-color="#F05A28" stop-opacity=".06"/><stop offset=".75" stop-color="#F05A28" stop-opacity="0"/></radialGradient><radialGradient id="aA" cx="0" cy="0" r="1" gradientTransform="rotate(26.24 102.182 1458.619) scale(16.5108 9.08091)" gradientUnits="userSpaceOnUse"><stop stop-color="#F05A28" stop-opacity=".8"/><stop offset=".1" stop-color="#F05A28" stop-opacity=".78"/><stop offset=".2" stop-color="#F05A28" stop-opacity=".72"/><stop offset=".29" stop-color="#F05A28" stop-opacity=".65"/><stop offset=".39" stop-color="#F05A28" stop-opacity=".49"/><stop offset=".56" stop-color="#F05A28" stop-opacity=".23"/><stop offset=".68" stop-color="#F05A28" stop-opacity=".06"/><stop offset=".75" stop-color="#F05A28" stop-opacity="0"/></radialGradient><radialGradient id="aH" cx="0" cy="0" r="1" gradientTransform="translate(469.957 136.157) scale(625.444)" gradientUnits="userSpaceOnUse"><stop offset=".23" stop-color="#359998" stop-opacity="0"/><stop offset=".57" stop-color="#359998" stop-opacity="0"/><stop offset=".62" stop-color="#359998" stop-opacity=".1"/><stop offset=".71" stop-color="#359998" stop-opacity=".36"/><stop offset=".8" stop-color="#359998" stop-opacity=".65"/><stop offset=".81" stop-color="#359998" stop-opacity=".68"/><stop offset=".88" stop-color="#359998" stop-opacity=".83"/><stop offset=".94" stop-color="#359998" stop-opacity=".92"/><stop offset="1" stop-color="#359998" stop-opacity=".95"/></radialGradient><radialGradient id="aI" cx="0" cy="0" r="1" gradientTransform="translate(469.957 136.157) scale(625.444)" gradientUnits="userSpaceOnUse"><stop offset=".23" stop-color="#359998" stop-opacity="0"/><stop offset=".57" stop-color="#359998" stop-opacity="0"/><stop offset=".62" stop-color="#359998" stop-opacity=".1"/><stop offset=".71" stop-color="#359998" stop-opacity=".36"/><stop offset=".8" stop-color="#359998" stop-opacity=".65"/><stop offset=".81" stop-color="#359998" stop-opacity=".68"/><stop offset=".88" stop-color="#359998" stop-opacity=".83"/><stop offset=".94" stop-color="#359998" stop-opacity=".92"/><stop offset="1" stop-color="#359998" stop-opacity=".95"/></radialGradient><clipPath id="a"><path fill="#fff" d="M.3.098H942v399.408H.3z"/></clipPath><clipPath id="aG"><rect width="764.619" height="764.619" x="79.261" y="208.058" fill="#fff" rx="382.31"/></clipPath></defs></svg>