<svg width="20" height="20" viewBox="0 0 20 20" fill="none" xmlns="http://www.w3.org/2000/svg">
<g clip-path="url(#clip0_1913_1071)">
<path d="M13.8889 2.22223H6.11111C5.81643 2.22223 5.53381 2.33929 5.32544 2.54767C5.11706 2.75604 5 3.03866 5 3.33334V16.6667C5 16.9614 5.11706 17.244 5.32544 17.4523C5.53381 17.6607 5.81643 17.7778 6.11111 17.7778H13.8889C14.1836 17.7778 14.4662 17.6607 14.6746 17.4523C14.8829 17.244 15 16.9614 15 16.6667V3.33334C15 3.03866 14.8829 2.75604 14.6746 2.54767C14.4662 2.33929 14.1836 2.22223 13.8889 2.22223ZM10.5556 16.6667H9.44444V15.5556H10.5556V16.6667ZM6.11111 14.4445V3.33334H13.8889V14.4445H6.11111Z" fill="#D0D5DD"/>
</g>
<defs>
<clipPath id="clip0_1913_1071">
<rect width="20" height="20" fill="white"/>
</clipPath>
</defs>
</svg>
