<svg xmlns="http://www.w3.org/2000/svg" width="66" height="51" fill="none"><path fill="#fff" fill-rule="evenodd" d="M20.253 5.541c-7.578 2.607-13.815 4.755-13.861 4.774-.072.028-.025.157.342.948.233.504.447.925.475.935.029.011 5.982-1.988 13.23-4.443 7.25-2.454 13.222-4.462 13.273-4.462.05 0 5.94 2.052 13.088 4.56 7.148 2.508 13.009 4.56 13.023 4.56.029 0 .963-1.921.942-1.937-.075-.056-26.57-9.683-26.64-9.68-.052.003-6.295 2.138-13.872 4.745Zm3.544 3.064-9.89 3.44 2.696.012 2.696.013 7.28-2.352 7.282-2.352 7.094 2.377 7.093 2.376 2.903-.012 2.902-.013-10.049-3.457a6745.933 6745.933 0 0 0-10.083-3.464c-.018-.004-4.484 1.54-9.924 3.432Zm-16.66 6.112v.883h53.149v-1.766H7.137v.883Zm47.584 2.964c-.243.038-.57.116-.726.175-.379.141-.748.506-.969.954l-.168.342.015 9.244c.013 7.934.025 9.318.089 9.772.04.29.1.602.132.69.21.588.842.79 2.411.776.787-.008.922-.022 1.25-.128.203-.066.439-.133.524-.15.098-.02.236-.117.37-.261.209-.226.215-.243.325-.868l.112-.637-.015-9.218-.015-9.218-.112-.327a1.072 1.072 0 0 0-.365-.555c-.291-.262-.474-.364-.921-.512-.415-.138-1.315-.174-1.937-.079Zm-17.806.172c-1.045.265-1.255.378-1.468.798-.187.368-.227 1.136-.205 3.99l.02 2.495.124.368c.07.202.726 1.835 1.461 3.628.9 2.196 1.37 3.405 1.439 3.702.096.413.103.61.12 3.1l.017 2.658-.336.169c-.494.248-.658.268-.856.104a.94.94 0 0 1-.22-.263c-.044-.095-.06-.812-.061-2.74l-.002-2.611h-1.814v2.674c0 2.982-.023 2.783.353 3.19.487.529.899.625 2.536.593l1.069-.02.24-.164c.462-.315.6-.45.713-.701l.114-.252.017-2.624c.02-3.311.02-3.316-.447-4.386-.189-.433-.78-1.867-1.313-3.189a558.264 558.264 0 0 0-1.097-2.706 3.764 3.764 0 0 1-.182-.564c-.073-.354-.056-6.1.02-6.24.067-.129.154-.197.444-.349l.236-.124.328.166c.324.164.327.168.362.407.02.133.016 1.356-.007 2.717a214.886 214.886 0 0 0-.035 2.477l.926-.016.92-.015V18.86l-.222-.325c-.186-.273-.266-.344-.502-.45-.914-.409-1.717-.478-2.692-.232Zm9.128-.096c-.64.04-.92.107-1.349.32a1.37 1.37 0 0 0-.738.84c-.093.27-.095.502-.095 9.916 0 6.468.017 9.704.051 9.836.039.15.14.279.426.547.33.309.42.365.746.466.34.104.46.114 1.425.114h1.054l.426-.204c.494-.238.833-.528 1-.858l.118-.234v-5.2h-1.863v2.418c0 2.005-.012 2.46-.073 2.665-.107.36-.232.492-.548.584-.255.074-.282.074-.433-.008a.727.727 0 0 1-.252-.262c-.088-.169-.092-.55-.116-9.737-.02-8.204-.014-9.601.046-9.846l.07-.286.343-.172c.377-.19.479-.192.843-.01.173.086.212.133.237.281.016.098.03 1.32.03 2.716v2.537h1.863v-5.307l-.123-.227c-.192-.352-.753-.669-1.526-.863-.312-.078-.64-.083-1.562-.026Zm-36.295.037-.895.014.002 10.087c.002 8.096.016 10.158.067 10.447.059.327.086.38.304.602.285.29.567.458 1 .594.29.091.4.097 1.274.071.889-.026.987-.039 1.377-.172.632-.216.895-.408 1.047-.768l.125-.294.033-10.31.033-10.308h-1.978v10.301c0 9.523-.005 10.312-.08 10.44-.101.17-.24.236-.57.27-.363.039-.533-.022-.636-.224-.08-.16-.086-.761-.086-10.478 0-8.22-.012-10.307-.061-10.298a25.74 25.74 0 0 1-.956.026Zm8.323 10.921v10.959h1.225l.005-6.24c.002-3.959.02-6.185.05-6.091.038.121 2.688 11.772 2.774 12.196l.027.135h1.149l.032-5.157c.018-2.836.033-7.767.033-10.958v-5.802H22.287l-.004 6.19c-.004 5.272-.014 6.154-.07 5.945-.037-.135-.642-2.882-1.346-6.104-.705-3.223-1.292-5.898-1.306-5.945-.023-.077-.103-.086-.758-.086h-.732v10.958Zm9.25-3.748c-.018 3.972-.033 8.917-.033 10.989v3.767h4.695l.032-.356.062-.637.03-.282-.485-.006c-.267-.003-.87-.02-1.343-.037l-.858-.03-.012-4.842-.013-4.842h1.962V27.382l-.92-.035c-.505-.02-.934-.05-.954-.07-.02-.019-.041-1.901-.049-4.183l-.014-4.148.363-.03c.2-.018.853-.031 1.453-.031h1.089l.03-.184c.017-.101.03-.344.031-.54v-.355h-2.223c-1.223 0-2.356-.014-2.517-.03l-.293-.031-.033 7.221Zm28.49-6.548c.22.035.42.214.648.582l.117.19-.033 9.357-.032 9.357-.118.323c-.064.178-.155.365-.2.416-.047.051-.244.13-.445.177-.343.081-.37.081-.57-.001-.587-.241-.575-.228-.697-.74-.074-.315-.08-1.11-.068-9.683l.014-9.34.102-.197c.15-.287.686-.548 1.001-.487.04.008.167.029.28.046ZM6.194 42.224l-.014.882h54.253V41.341H6.209l-.014.883ZM2.43 45.876v1.103h61.387v-2.206H2.43v1.103ZM.02 48.683c-.003.02-.01.528-.013 1.128L0 50.901h66l-.007-1.09c-.004-.6-.01-1.108-.013-1.128-.003-.02-14.844-.036-32.98-.036-18.135 0-32.975.016-32.979.036Z" clip-rule="evenodd"/></svg>